<?xml version="1.0" encoding="UTF-8"?>
<svg version="1.1" xmlns="http://www.w3.org/2000/svg" width="736" height="552">
<path d="M0 0 C242.88 0 485.76 0 736 0 C736 182.16 736 364.32 736 552 C493.12 552 250.24 552 0 552 C0 369.84 0 187.68 0 0 Z " fill="#FDFDFE" transform="translate(0,0)"/>
<path d="M0 0 C3.1875 0.3125 3.1875 0.3125 5.5 1.9375 C7.1875 4.3125 7.1875 4.3125 7.47265625 7.25 C7.89108534 10.45413615 7.89108534 10.45413615 10.4453125 12.1484375 C11.39148438 12.65632812 12.33765625 13.16421875 13.3125 13.6875 C20.32570141 17.83166447 26.17987301 22.93505292 28.76171875 30.90234375 C29.83469744 36.97599376 30.15218683 44.03448456 28.40234375 49.98046875 C28.29599609 51.13482422 28.29599609 51.13482422 28.1875 52.3125 C29.92663398 54.52215714 29.92663398 54.52215714 32.5 56.4375 C47.8132704 69.33174884 47.8132704 69.33174884 50.1875 76.3125 C50.2652346 78.64453812 50.27717728 80.98089059 50.1875 83.3125 C27.43757679 84.0200335 12.19121067 81.65472371 -7.5859375 70.1875 C-11.85090376 67.7268503 -16.11117243 65.95867092 -20.79101562 64.44042969 C-23.48284823 62.93846512 -23.96157597 61.43033163 -24.9375 58.5625 C-25.26903094 57.15462887 -25.57471666 55.73920003 -25.8125 54.3125 C-26.4725 54.3125 -27.1325 54.3125 -27.8125 54.3125 C-28.43125 53.5390625 -28.43125 53.5390625 -29.0625 52.75 C-30.81489888 50.97706603 -30.81489888 50.97706603 -33.75 51.5 C-37.50160067 52.45260428 -37.50160067 52.45260428 -40.8125 54.3125 C-42.04540201 56.76954762 -42.04540201 56.76954762 -42.8125 59.3125 C-43.1425 59.9725 -43.4725 60.6325 -43.8125 61.3125 C-44.09115886 64.88198729 -44.25978479 68.45131679 -44.43359375 72.02734375 C-44.8125 75.3125 -44.8125 75.3125 -46.8125 78.3125 C-46.3071875 79.11171875 -45.801875 79.9109375 -45.28125 80.734375 C-40.78704339 88.33172427 -38.51082946 94.33499907 -39.8125 103.3125 C-40.8125 107.0625 -40.8125 107.0625 -41.8125 109.3125 C-40.9875 110.09625 -40.1625 110.88 -39.3125 111.6875 C-36.8125 114.3125 -36.8125 114.3125 -36.8125 116.3125 C-40.27403846 119.3125 -40.27403846 119.3125 -42.8125 119.3125 C-42.8125 118.3225 -42.8125 117.3325 -42.8125 116.3125 C-45.81242729 117.60394978 -45.81242729 117.60394978 -48.8125 119.3125 C-49.1425 120.3025 -49.4725 121.2925 -49.8125 122.3125 C-49.1525 122.3125 -48.4925 122.3125 -47.8125 122.3125 C-47.21501953 123.83230469 -47.21501953 123.83230469 -46.60546875 125.3828125 C-46.07045321 126.73443071 -45.53528904 128.08599009 -45 129.4375 C-44.73896484 130.10265625 -44.47792969 130.7678125 -44.20898438 131.453125 C-43.68292833 132.77800689 -43.14632392 134.09875032 -42.59912109 135.41503906 C-41.86765236 137.17946332 -41.17625569 138.96035399 -40.48828125 140.7421875 C-39.03124989 143.51768879 -39.03124989 143.51768879 -36.19140625 144.3515625 C-31.69197554 144.29954596 -27.99190473 143.10757071 -23.75 141.6875 C-15.53404743 139.06437599 -7.30447138 136.89853207 1.11938477 135.05029297 C4.9465347 134.18782609 8.51652477 133.27129965 12.10546875 131.66796875 C15.1875 130.3125 15.1875 130.3125 18.1875 130.3125 C18.1875 131.9625 18.1875 133.6125 18.1875 135.3125 C18.80625 134.9825 19.425 134.6525 20.0625 134.3125 C24.44961512 132.90862316 28.61901427 133.15282477 33.1875 133.3125 C32.95391617 139.03530376 31.46271439 141.77632667 27.66015625 146.02734375 C26.1875 147.3125 26.1875 147.3125 24.1875 147.3125 C24.1875 147.9725 24.1875 148.6325 24.1875 149.3125 C25.85039062 149.38597656 25.85039062 149.38597656 27.546875 149.4609375 C29.01044065 149.53599215 30.47398112 149.61153881 31.9375 149.6875 C32.66710937 149.7184375 33.39671875 149.749375 34.1484375 149.78125 C37.92692656 149.9873494 40.96696668 150.22762843 44.1875 152.3125 C42.84146505 153.42656521 41.4851691 154.52823594 40.125 155.625 C39.37089844 156.23988281 38.61679687 156.85476563 37.83984375 157.48828125 C31.46318631 161.8739941 25.29214634 163.01903854 17.75 164 C16.84701172 164.12955078 15.94402344 164.25910156 15.01367188 164.39257812 C9.68666085 165.12161874 4.56255997 165.44451902 -0.8125 165.3125 C-0.8125 166.9625 -0.8125 168.6125 -0.8125 170.3125 C-1.946875 170.68375 -3.08125 171.055 -4.25 171.4375 C-7.54693947 172.52944635 -10.82277953 173.66996862 -14.08984375 174.84765625 C-15.22305054 175.25443604 -15.22305054 175.25443604 -16.37915039 175.66943359 C-17.90710329 176.21920575 -19.43366414 176.77286363 -20.95874023 177.33056641 C-24.03174194 178.43380217 -26.5212442 179.3125 -29.8125 179.3125 C-29.0361068 182.3870356 -29.0361068 182.3870356 -26.8125 184.3125 C-27.4725 185.3025 -28.1325 186.2925 -28.8125 187.3125 C-23.44444438 190.54755238 -23.44444438 190.54755238 -17.38671875 190.9453125 C-15.14803438 190.15518861 -12.990108 189.25598973 -10.8125 188.3125 C-9.15410126 187.94020641 -7.49048725 187.5831431 -5.8125 187.3125 C-5.73 186.590625 -5.6475 185.86875 -5.5625 185.125 C-4.15074003 179.83090011 -0.98206268 177.23399015 3.5 174.375 C10.08389756 170.59607655 17.0882915 167.94645442 24.1875 165.3125 C25.08339844 164.97992188 25.97929687 164.64734375 26.90234375 164.3046875 C33.67965555 161.91814694 40.13417425 161.22408925 47.3125 161 C48.49070312 160.96261719 49.66890625 160.92523438 50.8828125 160.88671875 C54.91456261 161.40617592 56.39387182 162.39255124 59.1875 165.3125 C60.76953125 168.1171875 60.76953125 168.1171875 62 171.1875 C62.41894531 172.19554687 62.83789062 173.20359375 63.26953125 174.2421875 C64.4849341 178.30732213 65.04395557 181.57762846 63.12109375 185.47265625 C62.38052734 186.41431641 62.38052734 186.41431641 61.625 187.375 C61.14933594 188.00535156 60.67367188 188.63570312 60.18359375 189.28515625 C55.0608268 194.48812307 49.28289444 197.41722693 42.5 199.9375 C41.70762939 200.23599854 40.91525879 200.53449707 40.09887695 200.84204102 C28.77084076 205.02921458 15.58104173 209.64016391 3.75 204.75 C-0.18042746 203.16403804 -1.79591887 203.2414117 -5.8125 204.3125 C-6.76125 204.498125 -7.71 204.68375 -8.6875 204.875 C-9.739375 205.0915625 -9.739375 205.0915625 -10.8125 205.3125 C-10.874375 206.529375 -10.93625 207.74625 -11 209 C-11.1644762 212.23469869 -11.83761914 213.34399265 -13.90625 215.9375 C-19.77192601 220.73095566 -29.03354369 222.44155114 -36.5625 222.75 C-39.8125 222.3125 -39.8125 222.3125 -41.234375 220.80859375 C-43.30110505 218.84929273 -44.51110889 218.98418985 -47.3125 218.9375 C-51.54703634 218.58577141 -51.54703634 218.58577141 -53.9375 216.125 C-54.97586018 212.78741372 -54.47766043 210.69919712 -53.8125 207.3125 C-58.13911797 204.63481232 -62.47283041 201.96896441 -66.8125 199.3125 C-67.40579102 198.94914551 -67.99908203 198.58579102 -68.61035156 198.21142578 C-75.26859152 194.144947 -81.96682823 190.20138607 -88.82275391 186.47583008 C-109.60099301 175.15570126 -109.60099301 175.15570126 -113.8125 164.3125 C-114.39766739 161.91463364 -114.65449341 159.78793653 -114.8125 157.3125 C-115.62074219 157.6734375 -116.42898438 158.034375 -117.26171875 158.40625 C-118.33035156 158.8703125 -119.39898437 159.334375 -120.5 159.8125 C-121.55574219 160.2765625 -122.61148438 160.740625 -123.69921875 161.21875 C-126.7109437 162.2768215 -128.66459791 162.71482255 -131.8125 162.3125 C-134.62533675 159.92158876 -136.81358693 157.31114868 -139.125 154.4375 C-144.64614108 147.74677141 -151.12790899 143.19755555 -158.8125 139.3125 C-160.13701172 138.60480469 -160.13701172 138.60480469 -161.48828125 137.8828125 C-167.84822904 134.56083706 -174.29206145 131.93262548 -181.02294922 129.49462891 C-185.63865138 127.80622742 -189.95599108 125.82561214 -194.30859375 123.53515625 C-198.33551497 121.5688125 -202.5305428 120.06622321 -206.734375 118.5234375 C-209.86652301 117.29124729 -212.82519622 115.85981603 -215.8125 114.3125 C-209.50492526 106.25282117 -201.64676062 99.48021035 -192.8125 94.3125 C-191.651662 93.53677005 -190.49585986 92.75347845 -189.34375 91.96484375 C-181.46092044 86.62470317 -173.47411722 81.91599505 -164.875 77.8125 C-164.02421875 77.40378662 -163.1734375 76.99507324 -162.296875 76.57397461 C-157.38130771 74.28867539 -152.51688151 72.54178573 -147.30126953 71.07714844 C-144.76778338 70.29876128 -142.39372954 69.3367803 -139.95703125 68.296875 C-120.91511124 60.50345617 -95.56018529 57.4437399 -75.8125 64.3125 C-76.1425 63.3225 -76.4725 62.3325 -76.8125 61.3125 C-73.02232169 59.90220109 -69.87155248 58.87368352 -65.8125 59.3125 C-64.8225 59.9725 -63.8325 60.6325 -62.8125 61.3125 C-62.4825 59.3325 -62.1525 57.3525 -61.8125 55.3125 C-63.05 55.085625 -64.2875 54.85875 -65.5625 54.625 C-75.81727501 52.31928801 -86.29185973 47.83314027 -93.8125 40.3125 C-93.4375 37.1875 -93.4375 37.1875 -92.8125 34.3125 C-81.3436063 32.08243734 -70.49709143 30.88268533 -58.8125 31.3125 C-58.55597656 30.42304688 -58.29945313 29.53359375 -58.03515625 28.6171875 C-54.43341353 18.8821257 -44.87891761 9.68991194 -35.6640625 5.109375 C-30.60326598 2.95826277 -26.06291818 2.78107238 -20.625 2.9375 C-19.76197266 2.93878906 -18.89894531 2.94007813 -18.00976562 2.94140625 C-13.23454061 3.00717063 -9.29319187 3.47915635 -4.8125 5.3125 C-4.668125 4.673125 -4.52375 4.03375 -4.375 3.375 C-3.52444533 0.25629953 -3.33206464 0.3702294 0 0 Z " fill="#CDD5E3" transform="translate(420.8125,152.6875)"/>
<path d="M0 0 C3.770383 1.25679433 4.04612026 2.36978806 6 5.75 C19.86554179 28.23781147 40.50401307 43.50410315 62.89453125 56.7265625 C64.69829064 57.81751902 66.44941215 58.99469461 68.1875 60.1875 C71.34447544 62.22199529 74.53155676 63.56478211 78 65 C80.08039788 66.02100708 82.14373044 67.07016491 84.203125 68.1328125 C86.15919337 69.12391954 86.15919337 69.12391954 89 70 C88.99000725 69.14674889 88.99000725 69.14674889 88.97981262 68.27626038 C88.91311791 62.3221709 88.86805859 56.36818865 88.83520508 50.41381836 C88.82017723 48.1956755 88.79974923 45.97756207 88.77368164 43.75952148 C88.73703376 40.55965892 88.72021312 37.36019139 88.70703125 34.16015625 C88.69154739 33.17854019 88.67606354 32.19692413 88.66011047 31.18556213 C88.65830787 23.70529329 89.52116029 17.08180072 94.3125 11.125 C98.22380371 8.03234125 101.32520357 6.22119953 106.3125 5.5625 C114.13688192 6.4908165 120.52698391 10.76055395 127 15 C128.00675781 15.63808594 129.01351562 16.27617187 130.05078125 16.93359375 C159.77104992 35.77104992 159.77104992 35.77104992 169 45 C169.484464 51.29803197 168.23959055 56.71339151 166.72265625 62.81640625 C165.9628132 66.16382291 165.57251603 69.38237829 165.40625 72.8046875 C164.91749317 75.4458542 163.85288217 77.70611013 162.76220703 80.14794922 C161.56285427 83.06219971 160.90009216 86.05987756 160.1875 89.125 C155.78228674 107.40103153 150.07800354 125.21870547 144 143 C141.47129577 140.47129577 141.36628437 138.83142186 140.66796875 135.33984375 C140.42900879 134.16550781 140.19004883 132.99117187 139.94384766 131.78125 C139.69425293 130.5128125 139.4446582 129.244375 139.1875 127.9375 C138.92549301 126.62619696 138.66295489 125.31499995 138.39990234 124.00390625 C137.99650139 121.99105551 137.59407823 119.97803904 137.19500732 117.96432495 C136.33386259 113.62502724 135.42943301 109.29714875 134.49609375 104.97265625 C130.08032812 84.27988788 130.08032812 84.27988788 131 74 C130.13117188 73.87753906 129.26234375 73.75507813 128.3671875 73.62890625 C125.09654697 73.01803256 122.2320291 72.11210856 119.125 70.9375 C118.15820312 70.57527344 117.19140625 70.21304688 116.1953125 69.83984375 C115.10863281 69.42412109 115.10863281 69.42412109 114 69 C113.95101562 69.83660156 113.90203125 70.67320312 113.8515625 71.53515625 C113.28002221 80.43344724 112.27284802 89.17656807 111 98 C99.96086055 98.16207546 89.01559238 97.65764731 78 97 C78 98.32 78 99.64 78 101 C76.25589844 101.63615234 76.25589844 101.63615234 74.4765625 102.28515625 C66.19961387 105.31445667 57.94864205 108.38923584 49.75 111.625 C44.19395166 113.81589566 38.61923315 115.84677658 32.9375 117.6875 C28.24778817 119.21090958 23.79965568 120.89453785 19.34106445 122.98828125 C16.88011497 124.05180974 14.41719607 124.88019926 11.86328125 125.6953125 C6.60313608 127.42492227 1.41952154 129.30985957 -3.7578125 131.26953125 C-4.51957291 131.55697708 -5.28133331 131.84442291 -6.06617737 132.14057922 C-9.23086548 133.33589617 -12.39464774 134.53340739 -15.5546875 135.7409668 C-17.89070467 136.63232934 -20.23012878 137.51417672 -22.5703125 138.39453125 C-23.28792755 138.67150345 -24.0055426 138.94847565 -24.74490356 139.23384094 C-26.47587324 139.88097586 -28.23627444 140.44835541 -30 141 C-30.66 140.67 -31.32 140.34 -32 140 C-31.55197021 139.55720703 -31.10394043 139.11441406 -30.64233398 138.65820312 C-28.57129904 136.60823317 -26.50439303 134.55414567 -24.4375 132.5 C-23.73302734 131.80390625 -23.02855469 131.1078125 -22.30273438 130.390625 C-18.24909227 126.35566328 -14.40003448 122.22178169 -10.66821289 117.88867188 C-8.07802051 114.95617835 -5.29707504 112.23331322 -2.5 109.5 C2.21689329 104.83627945 6.75383938 100.10233469 11 95 C11.75603516 94.10087891 11.75603516 94.10087891 12.52734375 93.18359375 C13.69107176 91.79421211 14.84664578 90.39800511 16 89 C14.783125 88.938125 13.56625 88.87625 12.3125 88.8125 C5.48893055 88.06396853 -1.9403362 85.75659144 -7.65356445 81.87719727 C-9.71879079 78.99786357 -9.40816594 76.02434581 -9.36328125 72.61328125 C-9.36377975 71.8786113 -9.36427826 71.14394135 -9.36479187 70.38700867 C-9.36244951 68.8243033 -9.35271135 67.2615943 -9.33618164 65.69897461 C-9.31303097 63.36600772 -9.3155636 61.03422092 -9.32226562 58.70117188 C-9.22918538 9.22918538 -9.22918538 9.22918538 0 0 Z " fill="#9FA9BF" transform="translate(175,315)"/>
<path d="M0 0 C3.1875 0.3125 3.1875 0.3125 5.5 1.9375 C7.1875 4.3125 7.1875 4.3125 7.47265625 7.25 C7.89108534 10.45413615 7.89108534 10.45413615 10.4453125 12.1484375 C11.39148438 12.65632812 12.33765625 13.16421875 13.3125 13.6875 C20.32570141 17.83166447 26.17987301 22.93505292 28.76171875 30.90234375 C29.83469744 36.97599376 30.15218683 44.03448456 28.40234375 49.98046875 C28.33144531 50.75003906 28.26054687 51.51960938 28.1875 52.3125 C29.92663398 54.52215714 29.92663398 54.52215714 32.5 56.4375 C47.8132704 69.33174884 47.8132704 69.33174884 50.1875 76.3125 C50.2652346 78.64453812 50.27717728 80.98089059 50.1875 83.3125 C27.43757679 84.0200335 12.19121067 81.65472371 -7.5859375 70.1875 C-11.85090376 67.7268503 -16.11117243 65.95867092 -20.79101562 64.44042969 C-23.48284823 62.93846512 -23.96157597 61.43033163 -24.9375 58.5625 C-25.26903094 57.15462887 -25.57471666 55.73920003 -25.8125 54.3125 C-26.4725 54.3125 -27.1325 54.3125 -27.8125 54.3125 C-28.225 53.796875 -28.6375 53.28125 -29.0625 52.75 C-30.81489888 50.97706603 -30.81489888 50.97706603 -33.75 51.5 C-37.50160067 52.45260428 -37.50160067 52.45260428 -40.8125 54.3125 C-42.04540201 56.76954762 -42.04540201 56.76954762 -42.8125 59.3125 C-43.3075 60.3025 -43.3075 60.3025 -43.8125 61.3125 C-44.09115886 64.88198729 -44.25978479 68.45131679 -44.43359375 72.02734375 C-44.8125 75.3125 -44.8125 75.3125 -46.8125 78.3125 C-46.3071875 79.11171875 -45.801875 79.9109375 -45.28125 80.734375 C-40.78704339 88.33172427 -38.51082946 94.33499907 -39.8125 103.3125 C-40.8125 107.0625 -40.8125 107.0625 -41.8125 109.3125 C-40.9875 110.09625 -40.1625 110.88 -39.3125 111.6875 C-36.8125 114.3125 -36.8125 114.3125 -36.8125 116.3125 C-40.27403846 119.3125 -40.27403846 119.3125 -42.8125 119.3125 C-42.8125 118.3225 -42.8125 117.3325 -42.8125 116.3125 C-45.81242729 117.60394978 -45.81242729 117.60394978 -48.8125 119.3125 C-49.3075 120.7975 -49.3075 120.7975 -49.8125 122.3125 C-49.1525 122.3125 -48.4925 122.3125 -47.8125 122.3125 C-47.41417969 123.32570313 -47.01585937 124.33890625 -46.60546875 125.3828125 C-46.07045321 126.73443071 -45.53528904 128.08599009 -45 129.4375 C-44.73896484 130.10265625 -44.47792969 130.7678125 -44.20898438 131.453125 C-43.68292833 132.77800689 -43.14632392 134.09875032 -42.59912109 135.41503906 C-41.86765236 137.17946332 -41.17625569 138.96035399 -40.48828125 140.7421875 C-39.03124989 143.51768879 -39.03124989 143.51768879 -36.19140625 144.3515625 C-31.69197554 144.29954596 -27.99190473 143.10757071 -23.75 141.6875 C-15.53404743 139.06437599 -7.30447138 136.89853207 1.11938477 135.05029297 C4.9465347 134.18782609 8.51652477 133.27129965 12.10546875 131.66796875 C15.1875 130.3125 15.1875 130.3125 18.1875 130.3125 C18.1875 131.9625 18.1875 133.6125 18.1875 135.3125 C18.80625 134.9825 19.425 134.6525 20.0625 134.3125 C24.44961512 132.90862316 28.61901427 133.15282477 33.1875 133.3125 C32.95391617 139.03530376 31.46271439 141.77632667 27.66015625 146.02734375 C26.1875 147.3125 26.1875 147.3125 24.1875 147.3125 C24.1875 147.9725 24.1875 148.6325 24.1875 149.3125 C25.85039062 149.38597656 25.85039062 149.38597656 27.546875 149.4609375 C29.01044065 149.53599215 30.47398112 149.61153881 31.9375 149.6875 C32.66710937 149.7184375 33.39671875 149.749375 34.1484375 149.78125 C37.92692656 149.9873494 40.96696668 150.22762843 44.1875 152.3125 C42.84146505 153.42656521 41.4851691 154.52823594 40.125 155.625 C39.37089844 156.23988281 38.61679687 156.85476563 37.83984375 157.48828125 C31.46318631 161.8739941 25.29214634 163.01903854 17.75 164 C16.84701172 164.12955078 15.94402344 164.25910156 15.01367188 164.39257812 C9.68666085 165.12161874 4.56255997 165.44451902 -0.8125 165.3125 C-0.8125 166.9625 -0.8125 168.6125 -0.8125 170.3125 C-1.34254639 170.48555664 -1.87259277 170.65861328 -2.41870117 170.83691406 C-6.61249054 172.21891173 -10.78031465 173.65063187 -14.92578125 175.171875 C-15.78107422 175.48253906 -16.63636719 175.79320312 -17.51757812 176.11328125 C-19.2781437 176.75420624 -21.03591819 177.40284306 -22.79101562 178.05859375 C-24.06428711 178.51685547 -24.06428711 178.51685547 -25.36328125 178.984375 C-26.12294189 179.2637793 -26.88260254 179.54318359 -27.6652832 179.83105469 C-31.55719192 180.70369187 -34.41178843 179.13430977 -37.8125 177.3125 C-37.8125 176.6525 -37.8125 175.9925 -37.8125 175.3125 C-38.35261719 175.07144531 -38.89273438 174.83039063 -39.44921875 174.58203125 C-42.4129661 172.98993557 -44.95157534 171.04196107 -47.625 169 C-51.0561977 166.38363315 -54.49855989 163.80926584 -58.0625 161.375 C-58.97 160.694375 -59.8775 160.01375 -60.8125 159.3125 C-60.8125 158.6525 -60.8125 157.9925 -60.8125 157.3125 C-61.4725 157.3125 -62.1325 157.3125 -62.8125 157.3125 C-62.80361755 156.73415405 -62.79473511 156.15580811 -62.7855835 155.55993652 C-62.69605933 149.45884235 -62.63633756 143.35793907 -62.59277344 137.25634766 C-62.57284228 134.98901777 -62.54568732 132.72173803 -62.51074219 130.45458984 C-62.2097997 110.40650914 -65.37547576 94.48169184 -72.796875 75.83984375 C-75.672889 68.58197822 -75.672889 68.58197822 -74.8125 65.3125 C-72.65670978 63.06554452 -70.30986699 61.16641274 -67.8125 59.3125 C-66.1625 59.9725 -64.5125 60.6325 -62.8125 61.3125 C-62.4825 59.3325 -62.1525 57.3525 -61.8125 55.3125 C-63.66875 54.9721875 -63.66875 54.9721875 -65.5625 54.625 C-75.81727501 52.31928801 -86.29185973 47.83314027 -93.8125 40.3125 C-93.4375 37.1875 -93.4375 37.1875 -92.8125 34.3125 C-81.3436063 32.08243734 -70.49709143 30.88268533 -58.8125 31.3125 C-58.42771484 29.97832031 -58.42771484 29.97832031 -58.03515625 28.6171875 C-54.43341353 18.8821257 -44.87891761 9.68991194 -35.6640625 5.109375 C-30.60326598 2.95826277 -26.06291818 2.78107238 -20.625 2.9375 C-19.76197266 2.93878906 -18.89894531 2.94007813 -18.00976562 2.94140625 C-13.23454061 3.00717063 -9.29319187 3.47915635 -4.8125 5.3125 C-4.668125 4.673125 -4.52375 4.03375 -4.375 3.375 C-3.52444533 0.25629953 -3.33206464 0.3702294 0 0 Z " fill="#667293" transform="translate(420.8125,152.6875)"/>
<path d="M0 0 C-0.64517975 2.91681264 -1.2911182 5.83345373 -1.9375 8.75 C-2.11990234 9.575 -2.30230469 10.4 -2.49023438 11.25 C-2.66748047 12.04921875 -2.84472656 12.8484375 -3.02734375 13.671875 C-3.27085571 14.77160645 -3.27085571 14.77160645 -3.51928711 15.89355469 C-3.82146569 17.21767698 -4.16024944 18.53449658 -4.55029297 19.83544922 C-5.58954727 24.83763631 -5.18588467 30.11902568 -5.18530273 35.21679688 C-5.18748562 37.36088012 -5.20565125 39.50444541 -5.22460938 41.6484375 C-5.22754454 43.02343575 -5.22952851 44.39843643 -5.23046875 45.7734375 C-5.23457764 47.01528809 -5.23868652 48.25713867 -5.24291992 49.53662109 C-4.50579306 60.04604996 3.44617755 69.19971365 10.890625 76.234375 C20.23910044 84.05939518 30.476001 90.30558058 41.20361328 96.03662109 C42.83129855 96.9095276 44.44579705 97.80691355 46.05859375 98.70703125 C46.92613281 99.17496094 47.79367187 99.64289063 48.6875 100.125 C49.41324219 100.51945312 50.13898438 100.91390625 50.88671875 101.3203125 C53.65621075 102.21105484 55.26400409 101.93754061 58 101 C59.11375 99.453125 59.11375 99.453125 60.25 97.875 C63 95 63 95 65.10546875 94.7578125 C68.70912868 95.13206194 71.61941686 95.82995221 74.9375 97.3125 C79.245527 98.2796081 81.90039364 96.74254715 85.828125 94.9453125 C88 94 88 94 90 94 C90.0825 93.278125 90.165 92.55625 90.25 91.8125 C91.66175997 86.51840011 94.83043732 83.92149015 99.3125 81.0625 C105.89639756 77.28357655 112.9007915 74.63395442 120 72 C120.89589844 71.66742188 121.79179687 71.33484375 122.71484375 70.9921875 C129.49215555 68.60564694 135.94667425 67.91158925 143.125 67.6875 C144.30320312 67.65011719 145.48140625 67.61273438 146.6953125 67.57421875 C150.72706261 68.09367592 152.20637182 69.08005124 155 72 C156.58203125 74.8046875 156.58203125 74.8046875 157.8125 77.875 C158.23144531 78.88304687 158.65039062 79.89109375 159.08203125 80.9296875 C160.2974341 84.99482213 160.85645557 88.26512846 158.93359375 92.16015625 C158.19302734 93.10181641 158.19302734 93.10181641 157.4375 94.0625 C156.96183594 94.69285156 156.48617188 95.32320313 155.99609375 95.97265625 C150.8733268 101.17562307 145.09539444 104.10472693 138.3125 106.625 C137.52012939 106.92349854 136.72775879 107.22199707 135.91137695 107.52954102 C124.58334076 111.71671458 111.39354173 116.32766391 99.5625 111.4375 C95.63207254 109.85153804 94.01658113 109.9289117 90 111 C89.05125 111.185625 88.1025 111.37125 87.125 111.5625 C86.073125 111.7790625 86.073125 111.7790625 85 112 C84.938125 113.216875 84.87625 114.43375 84.8125 115.6875 C84.6480238 118.92219869 83.97488086 120.03149265 81.90625 122.625 C76.04057399 127.41845566 66.77895631 129.12905114 59.25 129.4375 C56 129 56 129 54.578125 127.49609375 C52.51139495 125.53679273 51.30139111 125.67168985 48.5 125.625 C44.26546366 125.27327141 44.26546366 125.27327141 41.875 122.8125 C40.83663982 119.47491372 41.33483957 117.38669712 42 114 C37.67338203 111.32231232 33.33966959 108.65646441 29 106 C28.40670898 105.63664551 27.81341797 105.27329102 27.20214844 104.89892578 C20.54390848 100.832447 13.84567177 96.88888607 6.98974609 93.16333008 C-13.78849301 81.84320126 -13.78849301 81.84320126 -18 71 C-18.58516739 68.60213364 -18.84199341 66.47543653 -19 64 C-19.80824219 64.3609375 -20.61648438 64.721875 -21.44921875 65.09375 C-23.05216797 65.78984375 -23.05216797 65.78984375 -24.6875 66.5 C-26.27111328 67.19609375 -26.27111328 67.19609375 -27.88671875 67.90625 C-30.8984437 68.9643215 -32.85209791 69.40232255 -36 69 C-38.81283675 66.60908876 -41.00108693 63.99864868 -43.3125 61.125 C-48.83364108 54.43427141 -55.31540899 49.88505555 -63 46 C-63.88300781 45.52820313 -64.76601563 45.05640625 -65.67578125 44.5703125 C-72.03572904 41.24833706 -78.47956145 38.62012548 -85.21044922 36.18212891 C-89.82615138 34.49372742 -94.14349108 32.51311214 -98.49609375 30.22265625 C-102.52301497 28.2563125 -106.7180428 26.75372321 -110.921875 25.2109375 C-114.05402301 23.97874729 -117.01269622 22.54731603 -120 21 C-114.78430484 14.33550063 -108.55859086 9.27446546 -102 4 C-97.37434411 6.59180719 -93.30047806 9.75630285 -89.125 13 C-83.32700874 17.4650471 -77.51101957 21.90142798 -71.625 26.25 C-71.00125488 26.71535156 -70.37750977 27.18070312 -69.73486328 27.66015625 C-67.16495674 29.54994034 -65.04781314 30.98406229 -62 32 C-61.67 30.35 -61.34 28.7 -61 27 C-59.54166667 27.4375 -58.08333333 27.875 -56.625 28.3125 C-55.26375 28.71855469 -55.26375 28.71855469 -53.875 29.1328125 C-51.99648994 29.69942831 -50.12126958 30.27709965 -48.25 30.8671875 C-47.38375 31.13789063 -46.5175 31.40859375 -45.625 31.6875 C-44.83351563 31.93886719 -44.04203125 32.19023437 -43.2265625 32.44921875 C-40.73511861 33.16008705 -40.73511861 33.16008705 -37 33 C-39.62304564 31.01823243 -42.24876211 29.04003469 -44.875 27.0625 C-45.99455078 26.21655273 -45.99455078 26.21655273 -47.13671875 25.35351562 C-47.85214844 24.81533203 -48.56757813 24.27714844 -49.3046875 23.72265625 C-49.96452637 23.22515869 -50.62436523 22.72766113 -51.30419922 22.21508789 C-52.99194853 20.93843111 -52.99194853 20.93843111 -55 20 C-55 19.34 -55 18.68 -55 18 C-55.66 18 -56.32 18 -57 18 C-57 17.34 -57 16.68 -57 16 C-54.77947941 16.48830893 -52.78794606 17.08919161 -50.6875 17.97265625 C-40.92163373 21.93294214 -31.34196997 21.36789616 -21 21 C-20.94376465 20.39671875 -20.8875293 19.7934375 -20.82958984 19.171875 C-20.74918457 18.37265625 -20.6687793 17.5734375 -20.5859375 16.75 C-20.47064697 15.56664062 -20.47064697 15.56664062 -20.35302734 14.359375 C-19.82001812 10.79713354 -18.7169249 8.16970751 -17 5 C-16.01 4.67 -15.02 4.34 -14 4 C-13.67 3.01 -13.34 2.02 -13 1 C-12.67 1 -12.34 1 -12 1 C-12 3.97 -12 6.94 -12 10 C-11.278125 9.278125 -10.55625 8.55625 -9.8125 7.8125 C-8.884375 6.884375 -7.95625 5.95625 -7 5 C-5.6696875 3.6078125 -5.6696875 3.6078125 -4.3125 2.1875 C-2 0 -2 0 0 0 Z " fill="#A0AABF" transform="translate(325,246)"/>
<path d="M0 0 C6.65886143 2.73669116 13.28348298 5.54294346 19.875 8.4375 C32.87064466 14.29180748 32.87064466 14.29180748 46.125 19.5 C54.86762174 22.70812944 62.82392483 27.08175374 70 33 C70.54269531 33.42152344 71.08539063 33.84304688 71.64453125 34.27734375 C75.32113655 37.19070441 78.06993315 40.37596995 81 44 C83.55667234 46.86657202 85.14268039 48.44895434 89 49 C89 49.66 89 50.32 89 51 C90.485 51.495 90.485 51.495 92 52 C95.02704059 55.2051018 96.4975516 57.60357652 97 62 C97.99 61.67 98.98 61.34 100 61 C99.34 62.32 98.68 63.64 98 65 C97.35933594 64.60167969 96.71867187 64.20335937 96.05859375 63.79296875 C85.81392487 57.18787929 85.81392487 57.18787929 74 56 C69.42498299 57.44474221 66.07724668 59.26447833 63.5625 63.4375 C61.54207835 68.04406137 60.87327393 71.97082082 60.88647461 76.97387695 C60.88655014 77.93449539 60.88662567 78.89511383 60.88670349 79.88484192 C60.89186478 80.9089769 60.89702606 81.93311188 60.90234375 82.98828125 C60.9037587 84.04661667 60.90517365 85.10495209 60.90663147 86.19535828 C60.91221841 89.56776789 60.92476856 92.94011054 60.9375 96.3125 C60.94251669 98.60221258 60.9470793 100.89192621 60.95117188 103.18164062 C60.96218357 108.78778317 60.97890874 114.3938868 61 120 C59.24700288 119.40458546 57.49770252 118.79828086 55.75 118.1875 C54.77546875 117.85105469 53.8009375 117.51460938 52.796875 117.16796875 C50.12178153 116.05085569 48.26082882 114.77980141 46 113 C44.34146628 112.30341584 42.68240677 111.60802995 41.01953125 110.921875 C36.80166741 108.99650582 32.93437566 106.43921085 29 104 C27.69437605 103.21033265 26.38835954 102.42131414 25.08203125 101.6328125 C17.85143443 97.23510822 11.14478904 92.86420507 5 87 C3.71167583 85.89193518 2.4198822 84.78789397 1.125 83.6875 C-6.58902391 76.87394581 -13.35837756 69.82701303 -19.5625 61.625 C-20.0874707 60.9347876 -20.61244141 60.2445752 -21.15332031 59.53344727 C-21.64026367 58.87530029 -22.12720703 58.21715332 -22.62890625 57.5390625 C-23.2796814 56.66048584 -23.2796814 56.66048584 -23.94360352 55.76416016 C-25 54 -25 54 -25.46069336 51.84130859 C-25.63866455 51.23367676 -25.81663574 50.62604492 -26 50 C-26.99 49.67 -27.98 49.34 -29 49 C-27.13236819 43.27789404 -25.14710968 37.62338249 -23 32 C-22.34 32 -21.68 32 -21 32 C-20.90332031 31.113125 -20.80664062 30.22625 -20.70703125 29.3125 C-19.94472827 25.74104738 -18.85795003 23.90013024 -16.6875 21 C-16.0584375 20.14664062 -15.429375 19.29328125 -14.78125 18.4140625 C-14.1934375 17.61742187 -13.605625 16.82078125 -13 16 C-12.22039076 14.79731014 -11.44764741 13.59008411 -10.6875 12.375 C-10.130625 11.59125 -9.57375 10.8075 -9 10 C-8.34 10 -7.68 10 -7 10 C-6.773125 9.46375 -6.54625 8.9275 -6.3125 8.375 C-4.56617944 5.21499137 -2.3597151 2.7323017 0 0 Z " fill="#CDD5E3" transform="translate(204,266)"/>
<path d="M0 0 C4.40695987 2.12953765 8.47295954 4.63409075 12.5625 7.3125 C14.07263672 8.26962891 14.07263672 8.26962891 15.61328125 9.24609375 C45.33354992 28.08354992 45.33354992 28.08354992 54.5625 37.3125 C55.046964 43.61053197 53.80209055 49.02589151 52.28515625 55.12890625 C51.5253132 58.47632291 51.13501603 61.69487829 50.96875 65.1171875 C50.47999317 67.7583542 49.41538217 70.01861013 48.32470703 72.46044922 C47.12535427 75.37469971 46.46259216 78.37237756 45.75 81.4375 C41.34478674 99.71353153 35.64050354 117.53120547 29.5625 135.3125 C27.03379577 132.78379577 26.92878437 131.14392186 26.23046875 127.65234375 C25.99150879 126.47800781 25.75254883 125.30367188 25.50634766 124.09375 C25.25675293 122.8253125 25.0071582 121.556875 24.75 120.25 C24.48799301 118.93869696 24.22545489 117.62749995 23.96240234 116.31640625 C23.55900139 114.30355551 23.15657823 112.29053904 22.75750732 110.27682495 C21.89636259 105.93752724 20.99193301 101.60964875 20.05859375 97.28515625 C15.64282812 76.59238788 15.64282812 76.59238788 16.5625 66.3125 C15.29792969 66.13460937 15.29792969 66.13460937 14.0078125 65.953125 C4.44599043 64.17518983 -4.85393608 60.27028385 -13.76171875 56.44921875 C-17.28143659 54.95398095 -20.84610125 53.62474185 -24.4375 52.3125 C-25.20387076 43.52660663 -25.5862273 34.75567127 -25.6875 25.9375 C-25.70876953 25.02339355 -25.73003906 24.10928711 -25.75195312 23.16748047 C-25.78931568 15.81372978 -24.82705265 9.28329518 -20.125 3.4375 C-13.51657931 -1.78776287 -7.91922399 -3.34730086 0 0 Z " fill="#5F6A8A" transform="translate(289.4375,322.6875)"/>
<path d="M0 0 C0.33 0.99 0.66 1.98 1 3 C1.66 3 2.32 3 3 3 C6 8.625 6 8.625 6 12 C6.8979126 12.22151733 6.8979126 12.22151733 7.81396484 12.44750977 C14.76242833 14.32487294 20.44678758 17.30834411 26.625 20.9375 C43.23128816 30.25207129 58.18799368 31.7131713 77 32 C77 32.33 77 32.66 77 33 C73.37 33 69.74 33 66 33 C65.34 34.65 64.68 36.3 64 38 C63.34 38 62.68 38 62 38 C61.67 39.32 61.34 40.64 61 42 C60.34 42 59.68 42 59 42 C58.89171875 42.88300781 58.7834375 43.76601562 58.671875 44.67578125 C57.98789879 48.05987285 56.95581551 50.21111573 55.25 53.1875 C53.16717348 57.09279972 51.78277813 60.53452925 50.84375 64.86328125 C50.5648291 66.13425659 50.5648291 66.13425659 50.28027344 67.4309082 C49.93298952 69.11344444 49.62220983 70.80402621 49.35253906 72.50073242 C48.60906002 76.08010554 48.07665385 78.28385236 44.94677734 80.36572266 C42.32348666 81.46511854 39.75013972 82.27622748 37 83 C35.78183594 83.33016113 35.78183594 83.33016113 34.5390625 83.66699219 C32.07668926 84.2875822 29.60706116 84.83889194 27.125 85.375 C18.79450828 87.24423713 10.67018534 89.49770663 2.57275391 92.20849609 C-1.89737541 93.63971763 -5.41595266 94.7079163 -10 93 C-11.67578125 90.8828125 -11.67578125 90.8828125 -13 88 C-13.52980469 86.86304688 -14.05960937 85.72609375 -14.60546875 84.5546875 C-15.13661705 83.32976772 -15.66391162 82.10317027 -16.1875 80.875 C-16.46013672 80.25496094 -16.73277344 79.63492188 -17.01367188 78.99609375 C-18.23363518 76.15257025 -19 74.12849722 -19 71 C-19.66 71 -20.32 71 -21 71 C-20.875 69.125 -20.875 69.125 -20 67 C-16.9375 65.75 -16.9375 65.75 -14 65 C-14 65.99 -14 66.98 -14 68 C-13.38125 67.505 -12.7625 67.01 -12.125 66.5 C-10 65 -10 65 -8 65 C-8 64.34 -8 63.68 -8 63 C-8.61875 62.773125 -9.2375 62.54625 -9.875 62.3125 C-12.69126741 60.57304072 -13.24101587 59.18773336 -14 56 C-13.69449219 55.39671875 -13.38898438 54.7934375 -13.07421875 54.171875 C-10.85348862 49.68196244 -11.25052361 44.84697869 -12 40 C-13.7819716 35.07050382 -16.37737323 30.5226931 -19 26 C-18.34 26 -17.68 26 -17 26 C-16.97421875 24.92621094 -16.9484375 23.85242188 -16.921875 22.74609375 C-16.41332909 8.24828324 -16.41332909 8.24828324 -12 3 C-7.75625052 -0.69021694 -5.4430465 -1.55515614 0 0 Z " fill="#E8EBF7" transform="translate(392,204)"/>
<path d="M0 0 C0.15855469 0.64066406 0.31710937 1.28132813 0.48046875 1.94140625 C3.9399027 14.76615864 11.01560711 19.61838527 22 26 C24.63622396 27.48404121 27.28905154 28.92504949 29.9609375 30.34375 C36.04672141 33.66042401 41.97669856 37.25371887 47.94042969 40.78369141 C52.61436406 43.54394994 57.30835647 46.26998777 62 49 C61.79375 50.051875 61.5875 51.10375 61.375 52.1875 C61.00036896 55.99624887 61.28369933 57.66835752 63 61 C63.92232422 60.94779297 63.92232422 60.94779297 64.86328125 60.89453125 C65.67152344 60.86746094 66.47976563 60.84039062 67.3125 60.8125 C68.51326172 60.76029297 68.51326172 60.76029297 69.73828125 60.70703125 C72.52620971 61.06816188 73.13306007 61.99342744 75 64 C82.68561636 65.0346022 90.82102111 62.67971101 98 60 C100.42851715 58.09272555 101.7309286 56.94084698 102.58203125 53.96484375 C102.65808594 53.29582031 102.73414063 52.62679687 102.8125 51.9375 C103.25390625 49.84375 103.25390625 49.84375 104 48 C107.58113611 45.72735593 109.82545929 44.92808934 114.0625 45.1875 C117.08437938 46.02333898 120.04726107 46.94545038 123 48 C122.01 48.495 122.01 48.495 121 49 C120.56928031 50.98131059 120.26993799 52.9904616 120 55 C119.71558827 56.80542628 119.42600437 58.61004126 119.1328125 60.4140625 C118.89002563 61.91900269 118.89002563 61.91900269 118.64233398 63.4543457 C114.15935593 90.92977565 114.15935593 90.92977565 110 94 C107.5546875 94.6953125 107.5546875 94.6953125 104.875 95.125 C101.63785413 95.43722922 101.63785413 95.43722922 99 97 C76.09934299 101.84099321 51.07490918 101.58943032 28 98 C28.45148095 95.748615 28.91144504 93.49893002 29.375 91.25 C29.63023437 89.99703125 29.88546875 88.7440625 30.1484375 87.453125 C30.85694544 84.58009281 31.68924318 82.58954396 33 80 C33.39342767 78.13668286 33.72163348 76.25894485 34 74.375 C34.59926095 70.46553572 35.27594113 66.61261991 36.125 62.75 C36.41743661 61.16680869 36.70915588 59.58348463 37 58 C37.18046875 57.32453125 37.3609375 56.6490625 37.546875 55.953125 C37.95384318 53.53069537 37.90620425 52.30272192 37 50 C28.64821716 40.81455463 16.83902297 34.31552749 6.4140625 27.734375 C4.78597656 26.69023437 4.78597656 26.69023437 3.125 25.625 C2.15820312 25.01914062 1.19140625 24.41328125 0.1953125 23.7890625 C-2 22 -2 22 -2.8203125 19.7734375 C-2.87960937 19.18820312 -2.93890625 18.60296875 -3 18 C-3.66 18 -4.32 18 -5 18 C-5.5878125 16.6696875 -5.5878125 16.6696875 -6.1875 15.3125 C-8.06636955 11.87870392 -10.13295455 9.63458231 -13 7 C-12 4 -12 4 -10.0390625 2.83203125 C-9.24242187 2.49558594 -8.44578125 2.15914063 -7.625 1.8125 C-6.83351563 1.46832031 -6.04203125 1.12414062 -5.2265625 0.76953125 C-3 0 -3 0 0 0 Z " fill="#E8EBF7" transform="translate(306,310)"/>
<path d="M0 0 C5.65407795 7.07576807 13 20.92228695 13 30 C13.66 30 14.32 30 15 30 C15 30.99 15 31.98 15 33 C17.97 32.505 17.97 32.505 21 32 C20.19760872 38.41913022 18.07686567 44.31963261 15 50 C15.94875 49.34 16.8975 48.68 17.875 48 C21 46 21 46 23 46 C23 46.99 23 47.98 23 49 C23.66 49 24.32 49 25 49 C25.39832031 50.01320313 25.79664063 51.02640625 26.20703125 52.0703125 C26.74204679 53.42193071 27.27721096 54.77349009 27.8125 56.125 C28.07353516 56.79015625 28.33457031 57.4553125 28.60351562 58.140625 C29.12957167 59.46550689 29.66617608 60.78625032 30.21337891 62.10253906 C30.94484764 63.86696332 31.63624431 65.64785399 32.32421875 67.4296875 C33.78125011 70.20518879 33.78125011 70.20518879 36.62109375 71.0390625 C41.12052446 70.98704596 44.82059527 69.79507071 49.0625 68.375 C57.27845257 65.75187599 65.50802862 63.58603207 73.93188477 61.73779297 C77.7590347 60.87532609 81.32902477 59.95879965 84.91796875 58.35546875 C88 57 88 57 91 57 C91 58.65 91 60.3 91 62 C91.61875 61.67 92.2375 61.34 92.875 61 C97.26211512 59.59612316 101.43151427 59.84032477 106 60 C105.76641617 65.72280376 104.27521439 68.46382667 100.47265625 72.71484375 C99 74 99 74 97 74 C97 74.66 97 75.32 97 76 C98.66289062 76.07347656 98.66289062 76.07347656 100.359375 76.1484375 C101.82294065 76.22349215 103.28648112 76.29903881 104.75 76.375 C105.47960937 76.4059375 106.20921875 76.436875 106.9609375 76.46875 C110.73942656 76.6748494 113.77946668 76.91512843 117 79 C115.65396505 80.11406521 114.2976691 81.21573594 112.9375 82.3125 C112.18339844 82.92738281 111.42929687 83.54226563 110.65234375 84.17578125 C104.27568631 88.5614941 98.10464634 89.70653854 90.5625 90.6875 C89.65951172 90.81705078 88.75652344 90.94660156 87.82617188 91.08007812 C82.49916085 91.80911874 77.37505997 92.13201902 72 92 C72 93.65 72 95.3 72 97 C71.46995361 97.17305664 70.93990723 97.34611328 70.39379883 97.52441406 C66.20000946 98.90641173 62.03218535 100.33813187 57.88671875 101.859375 C57.03142578 102.17003906 56.17613281 102.48070312 55.29492188 102.80078125 C53.5343563 103.44170624 51.77658181 104.09034306 50.02148438 104.74609375 C48.74821289 105.20435547 48.74821289 105.20435547 47.44921875 105.671875 C46.30972778 106.09098145 46.30972778 106.09098145 45.1472168 106.51855469 C41.25530808 107.39119187 38.40071157 105.82180977 35 104 C35 103.34 35 102.68 35 102 C34.45988281 101.75894531 33.91976562 101.51789063 33.36328125 101.26953125 C30.3995339 99.67743557 27.86092466 97.72946107 25.1875 95.6875 C21.7563023 93.07113315 18.31394011 90.49676584 14.75 88.0625 C13.8425 87.381875 12.935 86.70125 12 86 C12 85.34 12 84.68 12 84 C11.34 84 10.68 84 10 84 C10.00888245 83.42165405 10.01776489 82.84330811 10.0269165 82.24743652 C10.11644067 76.14634235 10.17616244 70.04543907 10.21972656 63.94384766 C10.23965772 61.67651777 10.26681268 59.40923803 10.30175781 57.14208984 C10.57133306 39.18362091 8.43170034 24.79992876 2.05078125 7.98828125 C1.11177429 5.31787112 0.47034429 2.78588544 0 0 Z " fill="#A0AABF" transform="translate(348,226)"/>
<path d="M0 0 C1.17820312 -0.03738281 2.35640625 -0.07476562 3.5703125 -0.11328125 C7.60206261 0.40617592 9.08137182 1.39255124 11.875 4.3125 C13.45703125 7.1171875 13.45703125 7.1171875 14.6875 10.1875 C15.10644531 11.19554687 15.52539062 12.20359375 15.95703125 13.2421875 C17.1724341 17.30732213 17.73145557 20.57762846 15.80859375 24.47265625 C15.31488281 25.10042969 14.82117188 25.72820312 14.3125 26.375 C13.59900391 27.32052734 13.59900391 27.32052734 12.87109375 28.28515625 C7.7483268 33.48812307 1.97039444 36.41722693 -4.8125 38.9375 C-6.00105591 39.3852478 -6.00105591 39.3852478 -7.21362305 39.84204102 C-18.54165924 44.02921458 -31.73145827 48.64016391 -43.5625 43.75 C-47.49292746 42.16403804 -49.10841887 42.2414117 -53.125 43.3125 C-54.07375 43.498125 -55.0225 43.68375 -56 43.875 C-56.70125 44.019375 -57.4025 44.16375 -58.125 44.3125 C-58.2178125 46.1378125 -58.2178125 46.1378125 -58.3125 48 C-58.4769762 51.23469869 -59.15011914 52.34399265 -61.21875 54.9375 C-67.08442601 59.73095566 -76.34604369 61.44155114 -83.875 61.75 C-87.125 61.3125 -87.125 61.3125 -88.546875 59.80859375 C-90.61360505 57.84929273 -91.82360889 57.98418985 -94.625 57.9375 C-98.85953634 57.58577141 -98.85953634 57.58577141 -101.25 55.125 C-102.31411427 51.70463269 -102.18595372 49.72270837 -101.125 46.3125 C-98.125 44.3125 -98.125 44.3125 -94.125 44.3125 C-94.125 43.3225 -94.125 42.3325 -94.125 41.3125 C-93.465 41.3125 -92.805 41.3125 -92.125 41.3125 C-91.795 40.3225 -91.465 39.3325 -91.125 38.3125 C-90.465 38.3125 -89.805 38.3125 -89.125 38.3125 C-89.125 37.6525 -89.125 36.9925 -89.125 36.3125 C-88.465 36.3125 -87.805 36.3125 -87.125 36.3125 C-87.125 35.6525 -87.125 34.9925 -87.125 34.3125 C-85.14239574 32.62517723 -83.1417658 30.95883943 -81.125 29.3125 C-80.795 28.6525 -80.465 27.9925 -80.125 27.3125 C-71.78731733 28.01657098 -71.78731733 28.01657098 -68.1875 29.625 C-63.879473 30.5921081 -61.22460636 29.05504715 -57.296875 27.2578125 C-55.125 26.3125 -55.125 26.3125 -53.125 26.3125 C-53.0425 25.590625 -52.96 24.86875 -52.875 24.125 C-51.46324003 18.83090011 -48.29456268 16.23399015 -43.8125 13.375 C-37.22860244 9.59607655 -30.2242085 6.94645442 -23.125 4.3125 C-22.22910156 3.97992188 -21.33320313 3.64734375 -20.41015625 3.3046875 C-13.63284445 0.91814694 -7.17832575 0.22408925 0 0 Z " fill="#43B4A7" transform="translate(468.125,313.6875)"/>
<path d="M0 0 C1.35720154 0.09454971 1.35720154 0.09454971 2.74182129 0.19100952 C29.67819158 2.1255239 29.67819158 2.1255239 40.25 7.625 C39.25 10.625 39.25 10.625 36.17626953 12.24169922 C32.34542734 13.73713433 28.50497544 14.34832579 24.4296875 14.7578125 C23.32066574 14.881064 23.32066574 14.881064 22.1892395 15.00680542 C20.6249359 15.17824523 19.06003871 15.34434461 17.49462891 15.50537109 C15.17839232 15.74448804 12.86473397 16.00152916 10.55078125 16.26171875 C-11.04632107 18.62552072 -32.66624217 18.86214085 -54.375 18.875 C-55.37746828 18.87610464 -55.37746828 18.87610464 -56.40018845 18.8772316 C-77.99040341 18.89655421 -99.31138698 18.30869586 -120.75 15.625 C-121.83506836 15.49689941 -122.92013672 15.36879883 -124.03808594 15.23681641 C-126.92506822 14.8901066 -129.80659123 14.51875513 -132.6875 14.125 C-133.47584229 14.01889404 -134.26418457 13.91278809 -135.07641602 13.8034668 C-139.0441404 13.18241986 -141.79086673 12.40643075 -144.75 9.625 C-144.0625 7.7265625 -144.0625 7.7265625 -142.75 5.625 C-133.73572588 1.60077048 -122.50350447 1.45761624 -112.75 0.625 C-111.74743164 0.53331543 -110.74486328 0.44163086 -109.71191406 0.34716797 C-73.35569336 -2.86456991 -36.38058897 -2.55116895 0 0 Z " fill="#45B3A6" transform="translate(552.75,440.375)"/>
<path d="M0 0 C0.33 0.99 0.66 1.98 1 3 C1.66 3 2.32 3 3 3 C6 8.625 6 8.625 6 12 C6.57613037 12.13970215 7.15226074 12.2794043 7.74584961 12.42333984 C15.29920457 14.45041444 21.75988695 17.82317355 28.5625 21.625 C29.65369141 22.223125 30.74488281 22.82125 31.86914062 23.4375 C39.81257585 27.81257585 39.81257585 27.81257585 41 29 C40.71269945 31.33944736 40.38063221 33.6739143 40 36 C39.34 36 38.68 36 38 36 C37.71125 36.598125 37.4225 37.19625 37.125 37.8125 C36 40 36 40 34 43 C33.34 43 32.68 43 32 43 C31.76667969 43.56976563 31.53335938 44.13953125 31.29296875 44.7265625 C28.65349507 49.3675706 23.98935961 52.53413102 20 56 C19.36191406 56.598125 18.72382813 57.19625 18.06640625 57.8125 C12.1922473 63.23897478 6.22081614 65.59474604 -1.82421875 65.2890625 C-6.2642317 64.69918645 -9.66131372 63.17642128 -13.0625 60.1875 C-14.4348046 56.98545594 -13.11810853 55.29547776 -12 52 C-10.42720341 41.68245436 -13.98369585 34.65056531 -19 26 C-18.34 26 -17.68 26 -17 26 C-16.97421875 24.92621094 -16.9484375 23.85242188 -16.921875 22.74609375 C-16.41332909 8.24828324 -16.41332909 8.24828324 -12 3 C-7.75625052 -0.69021694 -5.4430465 -1.55515614 0 0 Z " fill="#FCFDFD" transform="translate(392,204)"/>
<path d="M0 0 C1.24128662 0.15847412 2.48257324 0.31694824 3.76147461 0.48022461 C9.44375364 1.10906469 15.10390542 1.22524246 20.81640625 1.31640625 C21.91347397 1.33718735 23.01054169 1.35796844 24.14085388 1.37937927 C27.61467769 1.44429797 31.08857132 1.50348922 34.5625 1.5625 C36.9303455 1.60574019 39.29818418 1.64935615 41.66601562 1.69335938 C47.44393852 1.79991948 53.22192949 1.90178849 59 2 C59.50559908 3.43554025 60.0042749 4.8735202 60.5 6.3125 C60.7784375 7.11300781 61.056875 7.91351563 61.34375 8.73828125 C62 11 62 11 62 14 C60.83726562 14.42410156 59.67453125 14.84820312 58.4765625 15.28515625 C50.19961387 18.31445667 41.94864205 21.38923584 33.75 24.625 C28.19395166 26.81589566 22.61923315 28.84677658 16.9375 30.6875 C12.24778817 32.21090958 7.79965568 33.89453785 3.34106445 35.98828125 C0.88011497 37.05180974 -1.58280393 37.88019926 -4.13671875 38.6953125 C-9.39686392 40.42492227 -14.58047846 42.30985957 -19.7578125 44.26953125 C-20.51957291 44.55697708 -21.28133331 44.84442291 -22.06617737 45.14057922 C-25.23086548 46.33589617 -28.39464774 47.53340739 -31.5546875 48.7409668 C-33.89070467 49.63232934 -36.23012878 50.51417672 -38.5703125 51.39453125 C-39.64673508 51.80998955 -39.64673508 51.80998955 -40.74490356 52.23384094 C-42.47587324 52.88097586 -44.23627444 53.44835541 -46 54 C-46.66 53.67 -47.32 53.34 -48 53 C-47.32795532 52.33581055 -47.32795532 52.33581055 -46.64233398 51.65820312 C-44.57129904 49.60823317 -42.50439303 47.55414567 -40.4375 45.5 C-39.73302734 44.80390625 -39.02855469 44.1078125 -38.30273438 43.390625 C-34.24909227 39.35566328 -30.40003448 35.22178169 -26.66821289 30.88867188 C-24.0780394 27.95619974 -21.29727786 25.23307942 -18.5 22.5 C-14.27583092 18.32894235 -10.19749427 14.11248081 -6.36328125 9.57421875 C-5 8 -5 8 -2.625 5.75 C-0.80975504 3.79512082 -0.53918663 2.55849344 0 0 Z " fill="#5A6380" transform="translate(191,402)"/>
<path d="M0 0 C2.62571335 0.47549934 5.2505304 0.95522567 7.875 1.4375 C8.62136719 1.57220703 9.36773437 1.70691406 10.13671875 1.84570312 C15.7734375 2.88671875 15.7734375 2.88671875 18 4 C17.88608368 6.60508636 17.75934452 9.20845546 17.625 11.8125 C17.57859375 12.91948242 17.57859375 12.91948242 17.53125 14.04882812 C17.32653852 17.81893115 17.13566173 19.79650741 15 23 C15.5053125 23.79921875 16.010625 24.5984375 16.53125 25.421875 C21.02545661 33.01922427 23.30167054 39.02249907 22 48 C21 51.75 21 51.75 20 54 C20.825 54.78375 21.65 55.5675 22.5 56.375 C25 59 25 59 25 61 C21.53846154 64 21.53846154 64 19 64 C19 63.01 19 62.02 19 61 C18.16855469 61.42152344 17.33710938 61.84304688 16.48046875 62.27734375 C15.39378906 62.82519531 14.30710937 63.37304688 13.1875 63.9375 C12.10855469 64.48277344 11.02960938 65.02804687 9.91796875 65.58984375 C7 67 7 67 4 68 C4.90076998 63.94653511 6.47634262 60.26293839 8.0625 56.4375 C8.8856905 54.2972047 9.50334689 52.23493898 10 50 C7.03 50.495 7.03 50.495 4 51 C4 50.01 4 49.02 4 48 C3.34 48 2.68 48 2 48 C1.5875 46.87464844 1.175 45.74929687 0.75 44.58984375 C-2.46289649 35.99734487 -5.85717351 27.78595685 -10.50976562 19.86108398 C-12.45787734 16.45526393 -13.75953704 13.93883812 -13 10 C-11.46875 8.19921875 -11.46875 8.19921875 -9.5 6.6875 C-8.8503125 6.17574219 -8.200625 5.66398438 -7.53125 5.13671875 C-7.0259375 4.76160156 -6.520625 4.38648438 -6 4 C-3.525 4.99 -3.525 4.99 -1 6 C-0.67 4.02 -0.34 2.04 0 0 Z " fill="#677393" transform="translate(359,208)"/>
<path d="M0 0 C4.59797493 2.58022282 8.65813976 5.71437925 12.8125 8.9375 C17.87905983 12.84503573 22.95897765 16.72856533 28.09716797 20.54150391 C35.1181203 25.75183549 41.96336169 31.1331251 48.68579102 36.72460938 C51.30276759 38.8872098 53.75774788 40.86052151 56.70703125 42.55859375 C59.49104666 44.3086818 60.98609765 46.41575421 63 49 C64.62770111 50.40076202 66.29585297 51.75581409 68 53.0625 C71.21573026 55.53802406 74.28217083 57.97389854 77 61 C77 61.66 77 62.32 77 63 C69.79459459 65.68108108 69.79459459 65.68108108 66 65 C63.18716325 62.60908876 60.99891307 59.99864868 58.6875 57.125 C53.16635892 50.43427141 46.68459101 45.88505555 39 42 C38.11699219 41.52820313 37.23398437 41.05640625 36.32421875 40.5703125 C29.96427096 37.24833706 23.52043855 34.62012548 16.78955078 32.18212891 C12.17384862 30.49372742 7.85650892 28.51311214 3.50390625 26.22265625 C-0.52301497 24.2563125 -4.7180428 22.75372321 -8.921875 21.2109375 C-12.05402301 19.97874729 -15.01269622 18.54731603 -18 17 C-12.78430484 10.33550063 -6.55859086 5.27446546 0 0 Z " fill="#677393" transform="translate(223,250)"/>
<path d="M0 0 C6.65886143 2.73669116 13.28348298 5.54294346 19.875 8.4375 C32.87064466 14.29180748 32.87064466 14.29180748 46.125 19.5 C54.86762174 22.70812944 62.82392483 27.08175374 70 33 C70.54269531 33.42152344 71.08539063 33.84304688 71.64453125 34.27734375 C75.31766878 37.18795652 78.08163245 40.37175927 81 44 C81.98290968 45.01680311 82.97334787 46.02738219 84 47 C78.125 46.125 78.125 46.125 77 45 C64.91629563 44.19441971 54.85813284 47.5725778 44.58203125 53.57421875 C42 55 42 55 40 55 C40 55.66 40 56.32 40 57 C36.53846154 60 36.53846154 60 34 60 C34 60.66 34 61.32 34 62 C28.52380952 67 28.52380952 67 26 67 C29.71672294 56.525599 36.05305273 46.4256076 46 41 C46.99 41 47.98 41 49 41 C49 40.34 49 39.68 49 39 C49.99 39 50.98 39 52 39 C51.67 38.67 51.34 38.34 51 38 C40.78296619 39.44415141 30.80943653 42.10425994 21.30859375 46.14453125 C18.70332021 47.10993718 17.5637457 46.94953545 15 46 C19.75 43 19.75 43 22 43 C22 42.34 22 41.68 22 41 C32.4450377 34.90880567 43.07395988 30.223499 55 28 C49.32119647 25.08596253 43.58615741 22.49613663 37.6875 20.0625 C32.35910118 17.84495109 27.05233664 15.60927324 21.8125 13.1875 C18.2720774 11.5534588 14.72453818 10.08395456 11.05859375 8.7578125 C7.0032504 7.26495366 3.00689181 5.61753624 -1 4 C-0.67 2.68 -0.34 1.36 0 0 Z " fill="#A0A9BF" transform="translate(204,266)"/>
<path d="M0 0 C8.16596069 0.51593216 13.0080933 2.41765997 18.703125 8.40625 C22.31571652 12.8458203 22.17287769 17.34184424 21.77734375 22.75390625 C20.59995166 26.15591858 18.77153286 27.73645699 16 30 C8.88974094 32.77881345 0.65026926 35.02984394 -7 34 C-7.46921875 33.50371094 -7.9384375 33.00742187 -8.421875 32.49609375 C-10.48860505 30.53679273 -11.69860889 30.67168985 -14.5 30.625 C-18.73453634 30.27327141 -18.73453634 30.27327141 -21.125 27.8125 C-22.18911427 24.39213269 -22.06095372 22.41020837 -21 19 C-18 17 -18 17 -14 17 C-14 16.01 -14 15.02 -14 14 C-13.34 14 -12.68 14 -12 14 C-11.67 13.01 -11.34 12.02 -11 11 C-10.34 11 -9.68 11 -9 11 C-9 10.34 -9 9.68 -9 9 C-8.34 9 -7.68 9 -7 9 C-7 8.34 -7 7.68 -7 7 C-5.01739574 5.31267723 -3.0167658 3.64633943 -1 2 C-0.67 1.34 -0.34 0.68 0 0 Z " fill="#667293" transform="translate(388,341)"/>
<path d="M0 0 C0 1.65 0 3.3 0 5 C0.61875 4.67 1.2375 4.34 1.875 4 C6.26211512 2.59612316 10.43151427 2.84032477 15 3 C14.76641617 8.72280376 13.27521439 11.46382667 9.47265625 15.71484375 C8 17 8 17 6 17 C6 17.66 6 18.32 6 19 C7.66289062 19.07347656 7.66289062 19.07347656 9.359375 19.1484375 C10.82294065 19.22349215 12.28648112 19.29903881 13.75 19.375 C14.84441406 19.42140625 14.84441406 19.42140625 15.9609375 19.46875 C19.73942656 19.6748494 22.77946668 19.91512843 26 22 C12.78106945 32.94083821 0.03179065 34.57089801 -17 34 C-17.19035127 27.29691605 -16.56164751 21.19302595 -15.25 14.625 C-15.09273438 13.73683594 -14.93546875 12.84867187 -14.7734375 11.93359375 C-13.51517757 5.53582597 -13.51517757 5.53582597 -11.05078125 2.97265625 C-7.35369701 1.21918201 -4.11570916 0 0 0 Z " fill="#687393" transform="translate(439,283)"/>
<path d="M0 0 C1.65 0 3.3 0 5 0 C5.495 0.99 5.495 0.99 6 2 C6.86625 1.7215625 6.86625 1.7215625 7.75 1.4375 C10.20692525 0.95976454 11.64397534 1.24270636 14 2 C12.68 2.66 11.36 3.32 10 4 C10.495 5.485 10.495 5.485 11 7 C11.99 7.33 12.98 7.66 14 8 C14 8.66 14 9.32 14 10 C15.32 9.67 16.64 9.34 18 9 C19.25664978 11.90600261 20 13.79604584 20 17 C22.31 17 24.62 17 27 17 C26.82597656 17.98097656 26.65195312 18.96195312 26.47265625 19.97265625 C25.87037696 24.18861129 26.1007493 28.20682745 26.4375 32.4375 C26.48970703 33.16904297 26.54191406 33.90058594 26.59570312 34.65429688 C26.72384876 36.43668622 26.8609816 38.2184257 27 40 C26.01 40 25.02 40 24 40 C20.65921839 40.33407816 19.90946736 41.09505927 17.5 43.625 C16.675 44.40875 15.85 45.1925 15 46 C12.84375 45.6484375 12.84375 45.6484375 11 45 C11.79664063 44.45472656 11.79664063 44.45472656 12.609375 43.8984375 C17.01567506 40.76256702 20.72285678 38.04931757 23 33 C23.63884961 26.09243861 20.71610455 19.68155868 17 14 C11.06548313 10.04365542 1.99166831 11.47860563 -4.875 12.625 C-14.90801194 14.95941367 -24.82018915 19.09068694 -33.88671875 23.921875 C-36 25 -36 25 -38.6953125 26.015625 C-41.52560175 27.22449431 -41.87077663 28.22037324 -43 31 C-43.66 31.66 -44.32 32.32 -45 33 C-45.13921875 33.96099609 -45.13921875 33.96099609 -45.28125 34.94140625 C-46 37 -46 37 -48.40625 38.58984375 C-57.78643204 42.6759079 -57.78643204 42.6759079 -63.0625 40.9375 C-65.62171391 39.82707758 -67.65827712 38.56114858 -70 37 C-69.34 36.01 -68.68 35.02 -68 34 C-68.66 33.34 -69.32 32.68 -70 32 C-70 31.01 -70 30.02 -70 29 C-66.85727971 27.86617359 -63.71030814 26.7446156 -60.5625 25.625 C-59.68400391 25.30789063 -58.80550781 24.99078125 -57.90039062 24.6640625 C-52.31006578 22.68372602 -46.81495705 21.17127314 -41 20 C-41 18.35 -41 16.7 -41 15 C-39.76080811 14.85751831 -39.76080811 14.85751831 -38.49658203 14.7121582 C-35.38209192 14.34491427 -32.27025093 13.96076033 -29.15917969 13.56567383 C-27.17016759 13.31812155 -25.17882828 13.08950116 -23.1875 12.86132812 C-12.97373046 11.54591841 -4.76497846 8.98848061 3 2 C2.01 1.34 1.02 0.68 0 0 Z " fill="#E3ECF7" transform="translate(461,303)"/>
<path d="M0 0 C1.42892578 -0.00386719 1.42892578 -0.00386719 2.88671875 -0.0078125 C5.3125 0.125 5.3125 0.125 7.3125 1.125 C7.57571204 4.02529872 7.71475833 5.58097155 5.94921875 7.96875 C-4.8668553 17.15916162 -20.1365308 23.28247085 -34.375 23.25 C-36.08236328 23.25386719 -36.08236328 23.25386719 -37.82421875 23.2578125 C-40.6875 23.125 -40.6875 23.125 -42.6875 22.125 C-43.08395522 17.66487873 -43.08395522 17.66487873 -41.359375 15.31640625 C-32.24186755 7.58876274 -22.3345929 3.47470379 -10.6875 1.125 C-9.86507812 0.93808594 -9.04265625 0.75117188 -8.1953125 0.55859375 C-5.42244161 0.07917215 -2.81281429 -0.0076748 0 0 Z " fill="#F5FCFC" transform="translate(464.6875,316.875)"/>
<path d="M0 0 C1.17820312 -0.03738281 2.35640625 -0.07476562 3.5703125 -0.11328125 C7.52922666 0.39679161 9.09863411 1.4958239 11.875 4.3125 C13.1875 7.5625 13.1875 7.5625 13.875 10.3125 C10.875 10.3125 10.875 10.3125 8.1875 7.8125 C7.424375 6.9875 6.66125 6.1625 5.875 5.3125 C5.875 6.9625 5.875 8.6125 5.875 10.3125 C4.885 9.9825 3.895 9.6525 2.875 9.3125 C3.205 7.6625 3.535 6.0125 3.875 4.3125 C-8.17229033 3.96774447 -18.29338005 4.87904895 -29.125 10.3125 C-30.14335937 10.79203125 -31.16171875 11.2715625 -32.2109375 11.765625 C-39.33606469 15.10115744 -39.33606469 15.10115744 -45.125 20.3125 C-45.92181318 22.95434541 -45.92181318 22.95434541 -46.125 25.3125 C-45.465 25.6425 -44.805 25.9725 -44.125 26.3125 C-45.445 26.6425 -46.765 26.9725 -48.125 27.3125 C-48.125 26.6525 -48.125 25.9925 -48.125 25.3125 C-48.785 25.3125 -49.445 25.3125 -50.125 25.3125 C-50.455 24.6525 -50.785 23.9925 -51.125 23.3125 C-51.455 24.9625 -51.785 26.6125 -52.125 28.3125 C-52.785 28.3125 -53.445 28.3125 -54.125 28.3125 C-54.125 28.9725 -54.125 29.6325 -54.125 30.3125 C-56.69713134 31.93199011 -57.80169159 32.35658751 -60.875 31.9375 C-61.6175 31.73125 -62.36 31.525 -63.125 31.3125 C-63.62 32.7975 -63.62 32.7975 -64.125 34.3125 C-64.785 33.3225 -65.445 32.3325 -66.125 31.3125 C-57.863041 26.90475513 -57.863041 26.90475513 -53.125 26.3125 C-53.0425 25.590625 -52.96 24.86875 -52.875 24.125 C-51.46324003 18.83090011 -48.29456268 16.23399015 -43.8125 13.375 C-37.22860244 9.59607655 -30.2242085 6.94645442 -23.125 4.3125 C-21.78115234 3.81363281 -21.78115234 3.81363281 -20.41015625 3.3046875 C-13.63284445 0.91814694 -7.17832575 0.22408925 0 0 Z " fill="#60B3AA" transform="translate(468.125,313.6875)"/>
<path d="M0 0 C2.62571335 0.47549934 5.2505304 0.95522567 7.875 1.4375 C8.99455078 1.63956055 8.99455078 1.63956055 10.13671875 1.84570312 C15.7734375 2.88671875 15.7734375 2.88671875 18 4 C17.91304042 6.60578866 17.80618592 9.2081279 17.6875 11.8125 C17.66494141 12.55048828 17.64238281 13.28847656 17.61914062 14.04882812 C17.3453392 19.54974762 17.3453392 19.54974762 15.45703125 22.01171875 C14.73580078 22.50091797 14.73580078 22.50091797 14 23 C12.29115995 21.37660195 10.62553283 19.70680947 9 18 C9 17.34 9 16.68 9 16 C8.01 15.67 7.02 15.34 6 15 C4.62298702 13.71182656 3.29355827 12.37195574 2 11 C1.2575 10.2575 0.515 9.515 -0.25 8.75 C-1.11625 7.88375 -1.11625 7.88375 -2 7 C-1.34 4.69 -0.68 2.38 0 0 Z " fill="#9FA8C0" transform="translate(359,208)"/>
<path d="M0 0 C0.99 0.66 1.98 1.32 3 2 C3.56737589 9.14893617 3.56737589 9.14893617 1 13 C-2.08218937 13.39138913 -4.05453113 13.63718306 -7 13 C-9.0625 10.875 -9.0625 10.875 -10 8 C-9.875 4.8125 -9.875 4.8125 -9 2 C-5.53001271 -0.31332486 -4.07490752 -0.33957563 0 0 Z " fill="#43B3A6" transform="translate(376,358)"/>
<path d="M0 0 C8.83250989 -0.56377723 15.78527339 0.73741354 24 4 C24 5.32 24 6.64 24 8 C17.6812749 11.03784861 17.6812749 11.03784861 14.75 10.875 C12.6061103 9.80305515 11.40224843 8.96314781 10 7 C10 5.35 10 3.7 10 2 C6.7 2 3.4 2 0 2 C0 1.34 0 0.68 0 0 Z " fill="#53B5A9" transform="translate(568,443)"/>
<path d="M0 0 C3.63614637 0.85503442 7.18308222 1.95675549 10.75 3.0625 C11.92046875 3.42472656 13.0909375 3.78695313 14.296875 4.16015625 C15.18890625 4.43730469 16.0809375 4.71445312 17 5 C17 7.64 17 10.28 17 13 C13.30099992 12.11223998 9.65449539 11.05418136 6 10 C6 9.34 6 8.68 6 8 C5.34 8 4.68 8 4 8 C4 7.34 4 6.68 4 6 C2.68 6 1.36 6 0 6 C-0.33 6.66 -0.66 7.32 -1 8 C-0.67 5.36 -0.34 2.72 0 0 Z " fill="#E2E8F4" transform="translate(289,384)"/>
<path d="M0 0 C0.33 0.66 0.66 1.32 1 2 C0.31035156 2.09796875 -0.37929688 2.1959375 -1.08984375 2.296875 C-6.726496 3.19379086 -11.57865667 4.43713347 -16.71875 6.9140625 C-20.72312619 8.82025528 -24.87328486 10.38032892 -29 12 C-29.66 11.34 -30.32 10.68 -31 10 C-6.75939599 -3.13596977 -6.75939599 -3.13596977 0 0 Z " fill="#78B0AB" transform="translate(458,316)"/>
<path d="M0 0 C1.65 0 3.3 0 5 0 C5.33 0.66 5.66 1.32 6 2 C6.5775 1.814375 7.155 1.62875 7.75 1.4375 C10.20692525 0.95976454 11.64397534 1.24270636 14 2 C12.02 2.99 12.02 2.99 10 4 C10.2784375 4.9590625 10.2784375 4.9590625 10.5625 5.9375 C10.706875 6.618125 10.85125 7.29875 11 8 C9.10511048 9.89488952 6.42860854 9.18019112 3.91015625 9.23046875 C2 9 2 9 0 7 C-0.66 6.67 -1.32 6.34 -2 6 C-0.35 4.68 1.3 3.36 3 2 C2.01 1.34 1.02 0.68 0 0 Z " fill="#EAECF8" transform="translate(461,303)"/>
<path d="M0 0 C2.13093906 1.06546953 3.36587557 2.29159719 5 4 C4.45214844 4.08636719 3.90429688 4.17273438 3.33984375 4.26171875 C-4.72407595 5.69093379 -12.29026658 8.30673312 -20 11 C-20 10.34 -20 9.68 -20 9 C-18.68 8.67 -17.36 8.34 -16 8 C-16 7.34 -16 6.68 -16 6 C-17.98 6 -19.96 6 -22 6 C-22 5.67 -22 5.34 -22 5 C-20.99839844 4.89042969 -19.99679687 4.78085937 -18.96484375 4.66796875 C-12.1997678 3.87722353 -6.17906895 3.01768484 0 0 Z " fill="#D0E9F3" transform="translate(456,311)"/>
<path d="M0 0 C0 0.66 0 1.32 0 2 C-11.73292188 3.89446549 -23.08394997 5.54072832 -35 5 C-31.85979372 2.90652915 -30.39670459 2.59738158 -26.73828125 2.1484375 C-25.70123047 2.01953125 -24.66417969 1.890625 -23.59570312 1.7578125 C-21.97051758 1.56832031 -21.97051758 1.56832031 -20.3125 1.375 C-18.71631836 1.17390625 -18.71631836 1.17390625 -17.08789062 0.96875 C-11.34716552 0.27376413 -5.78150373 -0.15380058 0 0 Z " fill="#60B2A8" transform="translate(448,441)"/>
<path d="M0 0 C1.32 1.32 2.64 2.64 4 4 C3.67 4.66 3.34 5.32 3 6 C2.75 9 2.75 9 3 12 C3.66 12.66 4.32 13.32 5 14 C4.625 17.625 4.625 17.625 4 21 C2.02 19.68 0.04 18.36 -2 17 C-1.34 11.39 -0.68 5.78 0 0 Z " fill="#D8DDF1" transform="translate(450,188)"/>
<path d="M0 0 C0.33 0.66 0.66 1.32 1 2 C0.01 2 -0.98 2 -2 2 C-2 2.66 -2 3.32 -2 4 C-5.33333333 5.66666667 -8.66666667 7.33333333 -12 9 C-12 8.01 -12 7.02 -12 6 C-14.31 6.66 -16.62 7.32 -19 8 C-19 7.34 -19 6.68 -19 6 C-19.66 5.67 -20.32 5.34 -21 5 C-18.81426438 4.34822031 -16.6263177 3.70385326 -14.4375 3.0625 C-13.21933594 2.70285156 -12.00117188 2.34320313 -10.74609375 1.97265625 C-7.12798381 1.03323041 -3.70146514 0.45256009 0 0 Z " fill="#C6CEDF" transform="translate(255,303)"/>
<path d="M0 0 C0.99 0.66 1.98 1.32 3 2 C3.56737589 9.14893617 3.56737589 9.14893617 1 13 C-2.08218937 13.39138913 -4.05453113 13.63718306 -7 13 C-9.0625 10.875 -9.0625 10.875 -10 8 C-9.875 4.8125 -9.875 4.8125 -9 2 C-5.53001271 -0.31332486 -4.07490752 -0.33957563 0 0 Z M-5 1 C-5 1.66 -5 2.32 -5 3 C-5.66 3 -6.32 3 -7 3 C-7 5.31 -7 7.62 -7 10 C-2.92920792 11.1508314 -2.92920792 11.1508314 0.875 9.875 C2.3568671 7.40522151 2.3633156 5.83386167 2 3 C0.16116119 0.71271266 0.16116119 0.71271266 -2.625 0.875 C-3.40875 0.91625 -4.1925 0.9575 -5 1 Z " fill="#61B0AC" transform="translate(376,358)"/>
<path d="M0 0 C0.66 0 1.32 0 2 0 C1.48914188 6.43681228 0.27057103 11.95942424 -2 18 C-4 16 -4 16 -4.3125 12.8125 C-3.90368218 7.82492257 -2.22878226 4.45756452 0 0 Z " fill="#5F647B" transform="translate(321,440)"/>
<path d="M0 0 C1.32 0.33 2.64 0.66 4 1 C4 4 4 4 2.5 5.5625 C-5.62805239 10.23613012 -14.9526552 9.19763617 -24 9 C-24 8.67 -24 8.34 -24 8 C-22.28103516 7.83564453 -22.28103516 7.83564453 -20.52734375 7.66796875 C-18.99733473 7.50839726 -17.46739005 7.34820805 -15.9375 7.1875 C-15.18533203 7.11724609 -14.43316406 7.04699219 -13.65820312 6.97460938 C-8.57640806 6.42463155 -4.60321286 5.23130504 0 3 C0 2.01 0 1.02 0 0 Z " fill="#D0F1EE" transform="translate(592,447)"/>
<path d="M0 0 C5.54425612 0.48210923 5.54425612 0.48210923 7.375 2.5625 C8.30487069 6.18899568 8.23829476 9.24685753 8 13 C7.01 14.485 7.01 14.485 6 16 C5.01 16 4.02 16 3 16 C3.33 15.01 3.66 14.02 4 13 C4.06665376 11.60560336 4.08538199 10.20830125 4.0625 8.8125 C4.041875 7.554375 4.02125 6.29625 4 5 C2.68 4.34 1.36 3.68 0 3 C0 2.01 0 1.02 0 0 Z " fill="#578395" transform="translate(374,355)"/>
<path d="M0 0 C2.475 0.99 2.475 0.99 5 2 C5 1.34 5 0.68 5 0 C6.32 0.33 7.64 0.66 9 1 C8.34 2.65 7.68 4.3 7 6 C0.07 5.34 -6.86 4.68 -14 4 C-14 3.67 -14 3.34 -14 3 C-12.60974609 2.80083984 -12.60974609 2.80083984 -11.19140625 2.59765625 C-9.99386719 2.42105469 -8.79632813 2.24445313 -7.5625 2.0625 C-6.36753906 1.88847656 -5.17257812 1.71445313 -3.94140625 1.53515625 C-1.12044324 1.31014787 -1.12044324 1.31014787 0 0 Z " fill="#E0E7F2" transform="translate(409,152)"/>
<path d="M0 0 C0.99 0.99 1.98 1.98 3 3 C3.99 3.66 4.98 4.32 6 5 C3.87875034 5.86343824 1.75286928 6.71550648 -0.375 7.5625 C-2.15003906 8.27599609 -2.15003906 8.27599609 -3.9609375 9.00390625 C-7 10 -7 10 -9 9 C-6.03 6.03 -3.06 3.06 0 0 Z " fill="#666B7D" transform="translate(152,446)"/>
<path d="M0 0 C0 1.65 0 3.3 0 5 C-0.99 5.495 -0.99 5.495 -2 6 C-2 4.68 -2 3.36 -2 2 C-9.26 2 -16.52 2 -24 2 C-24 1.67 -24 1.34 -24 1 C-5.85964912 -2.92982456 -5.85964912 -2.92982456 0 0 Z " fill="#D4F5F4" transform="translate(472,318)"/>
<path d="M0 0 C1.27230469 0.00902344 2.54460937 0.01804687 3.85546875 0.02734375 C5.31919922 0.04474609 5.31919922 0.04474609 6.8125 0.0625 C7.1425 0.7225 7.4725 1.3825 7.8125 2.0625 C6.1625 2.0625 4.5125 2.0625 2.8125 2.0625 C2.4825 2.7225 2.1525 3.3825 1.8125 4.0625 C-3.1375 3.7325 -8.0875 3.4025 -13.1875 3.0625 C-8.60237138 0.00574759 -5.41643676 -0.04969208 0 0 Z " fill="#6BB3A9" transform="translate(468.1875,313.9375)"/>
<path d="M0 0 C4.455 0.99 4.455 0.99 9 2 C8.67 3.98 8.34 5.96 8 8 C5.69 7.34 3.38 6.68 1 6 C1.33 5.01 1.66 4.02 2 3 C0.68 3.33 -0.64 3.66 -2 4 C-1.34 2.68 -0.68 1.36 0 0 Z " fill="#E3EAF8" transform="translate(350,206)"/>
<path d="M0 0 C9.57 0 19.14 0 29 0 C29 0.33 29 0.66 29 1 C14.645 1.99 14.645 1.99 0 3 C0 2.01 0 1.02 0 0 Z " fill="#C8EFEC" transform="translate(427,440)"/>
<path d="M0 0 C0 0.99 0 1.98 0 3 C-0.66 3 -1.32 3 -2 3 C-2 3.66 -2 4.32 -2 5 C-3.89248819 5.67610423 -5.7891602 6.34050439 -7.6875 7 C-9.27111328 7.556875 -9.27111328 7.556875 -10.88671875 8.125 C-13.78362056 8.9391857 -16.01700623 9.17709796 -19 9 C-19.33 9.66 -19.66 10.32 -20 11 C-20.66 10.34 -21.32 9.68 -22 9 C-21.40461426 8.76289307 -20.80922852 8.52578613 -20.19580078 8.28149414 C-17.50517486 7.20939451 -14.81508194 6.1359638 -12.125 5.0625 C-11.18785156 4.68931641 -10.25070312 4.31613281 -9.28515625 3.93164062 C-8.38925781 3.57392578 -7.49335938 3.21621094 -6.5703125 2.84765625 C-5.32918701 2.3527771 -5.32918701 2.3527771 -4.06298828 1.84790039 C-1.98779494 1.02457366 -1.98779494 1.02457366 0 0 Z " fill="#5EB0A6" transform="translate(462,330)"/>
<path d="M0 0 C-0.639375 0.28875 -1.27875 0.5775 -1.9375 0.875 C-4.15206079 1.82823451 -4.15206079 1.82823451 -5 4 C-6.671875 4.74609375 -6.671875 4.74609375 -8.75 5.4375 C-12.10857703 6.62145881 -15.00888541 8.03708105 -18 10 C-17.32510427 7.30041707 -16.66508238 5.48719288 -14.37890625 3.8125 C-9.08692502 0.81994513 -6.06775955 -0.11236592 0 0 Z " fill="#707B95" transform="translate(285,321)"/>
<path d="M0 0 C2.64 0 5.28 0 8 0 C8 0.66 8 1.32 8 2 C7.0409375 2.1546875 7.0409375 2.1546875 6.0625 2.3125 C5.381875 2.539375 4.70125 2.76625 4 3 C3.67 3.99 3.34 4.98 3 6 C0.49609375 7.38671875 0.49609375 7.38671875 -2.5625 8.6875 C-3.57441406 9.12449219 -4.58632813 9.56148438 -5.62890625 10.01171875 C-6.41136719 10.33785156 -7.19382812 10.66398437 -8 11 C-6.5361389 6.60841671 -4.02168662 6.12052567 0 4 C0 2.68 0 1.36 0 0 Z " fill="#DDF2F9" transform="translate(432,317)"/>
<path d="M0 0 C-0.165 0.61875 -0.33 1.2375 -0.5 1.875 C-1.07634644 3.96063386 -1.07634644 3.96063386 -1 6 C-2.27875 6.144375 -3.5575 6.28875 -4.875 6.4375 C-7.25692894 6.70642746 -8.84452691 6.92226346 -11 8 C-11.66 7.67 -12.32 7.34 -13 7 C-12 4 -12 4 -10.0390625 2.83203125 C-9.24242187 2.49558594 -8.44578125 2.15914063 -7.625 1.8125 C-6.83351563 1.46832031 -6.04203125 1.12414062 -5.2265625 0.76953125 C-3 0 -3 0 0 0 Z " fill="#E2E9F6" transform="translate(306,310)"/>
<path d="M0 0 C-7.09208587 5.538776 -12.12556907 6.17400845 -21 6 C-17.29335058 3.97559916 -13.36475968 2.65388472 -9.375 1.3125 C-8.694375 1.07466797 -8.01375 0.83683594 -7.3125 0.59179688 C-2.23691153 -1.11845576 -2.23691153 -1.11845576 0 0 Z " fill="#D0F3F2" transform="translate(467,352)"/>
<path d="M0 0 C2.05078125 0.03255208 4.1015625 0.06510417 6.15234375 0.09765625 C5.98734375 1.00515625 5.82234375 1.91265625 5.65234375 2.84765625 C5.05097229 6.20853128 5.05097229 6.20853128 5.15234375 10.09765625 C2.22033901 7.24489488 -0.49081029 4.44685841 -2.84765625 1.09765625 C-1.84765625 0.09765625 -1.84765625 0.09765625 0 0 Z " fill="#E4E8F7" transform="translate(441.84765625,167.90234375)"/>
<path d="M0 0 C1.65 0.33 3.3 0.66 5 1 C4.01 5.29 3.02 9.58 2 14 C1.01 13.34 0.02 12.68 -1 12 C-0.67 8.04 -0.34 4.08 0 0 Z " fill="#707591" transform="translate(324,424)"/>
<path d="M0 0 C-3.65004367 3.65004367 -8.45647687 3.94355115 -13.41796875 4.125 C-16.61447359 4.125 -19.80478159 4.08767368 -23 4 C-23 3.67 -23 3.34 -23 3 C-20.29273634 2.4935186 -17.58442876 1.994649 -14.875 1.5 C-13.73417969 1.28537109 -13.73417969 1.28537109 -12.5703125 1.06640625 C-8.31957086 0.29687544 -4.34140803 -0.16644376 0 0 Z " fill="#6BB4AC" transform="translate(452,355)"/>
<path d="M0 0 C2.97 1.98 5.94 3.96 9 6 C8.67 6.66 8.34 7.32 8 8 C5.69 7.67 3.38 7.34 1 7 C0.67 6.01 0.34 5.02 0 4 C-0.66 3.67 -1.32 3.34 -2 3 C-1.34 2.01 -0.68 1.02 0 0 Z " fill="#6C7694" transform="translate(324,345)"/>
<path d="M0 0 C5.65394631 -0.34615998 9.03006806 0.56574762 14 3 C13.67 3.99 13.34 4.98 13 6 C10.9375 6.6875 10.9375 6.6875 9 7 C9 6.01 9 5.02 9 4 C6.03 3.01 3.06 2.02 0 1 C0 0.67 0 0.34 0 0 Z " fill="#5AADA3" transform="translate(579,445)"/>
<path d="M0 0 C1.65 0 3.3 0 5 0 C4.67 0.99 4.34 1.98 4 3 C4.99 3.33 5.98 3.66 7 4 C6.01 4 5.02 4 4 4 C4 6.31 4 8.62 4 11 C3.01 10.67 2.02 10.34 1 10 C1 9.01 1 8.02 1 7 C-0.32 6.34 -1.64 5.68 -3 5 C-2.01 5 -1.02 5 0 5 C0 3.35 0 1.7 0 0 Z " fill="#DCE5F1" transform="translate(420,318)"/>
<path d="M0 0 C0.99 0.495 0.99 0.495 2 1 C2.33 1.99 2.66 2.98 3 4 C3.99 3.67 4.98 3.34 6 3 C7.49774018 2.90774789 8.99942974 2.8699981 10.5 2.875 C11.2734375 2.87242187 12.046875 2.86984375 12.84375 2.8671875 C15 3 15 3 18 4 C18 4.66 18 5.32 18 6 C17.43152344 5.90460938 16.86304688 5.80921875 16.27734375 5.7109375 C10.87031645 4.93463642 7.13925372 5.14112099 2 7 C0.5393715 4.35261084 0 3.10551666 0 0 Z " fill="#5FACAA" transform="translate(408,351)"/>
<path d="M0 0 C2.90462126 1.3020716 5.10337054 2.4136871 7 5 C7.84509053 7.65074981 8.41854044 10.27161283 9 13 C8.01 13.495 8.01 13.495 7 14 C5.64560332 11.29120665 5.93498549 8.99066732 6 6 C5.071875 5.7834375 5.071875 5.7834375 4.125 5.5625 C2 5 2 5 0 4 C0 2.68 0 1.36 0 0 Z " fill="#547E92" transform="translate(401,346)"/>
<path d="M0 0 C0.66 0.33 1.32 0.66 2 1 C2 1.66 2 2.32 2 3 C7.94 2.505 7.94 2.505 14 2 C13.67 2.66 13.34 3.32 13 4 C10.48636083 4.3679944 8.0899603 4.60530698 5.5625 4.75 C4.52125977 4.83314453 4.52125977 4.83314453 3.45898438 4.91796875 C1.64282062 5.03400632 -0.1803019 5.0247859 -2 5 C-2.66 4.34 -3.32 3.68 -4 3 C-3 1 -3 1 0 0 Z " fill="#E6F0FB" transform="translate(461,309)"/>
<path d="M0 0 C0.90105469 0.00902344 1.80210937 0.01804687 2.73046875 0.02734375 C3.41753906 0.03894531 4.10460937 0.05054688 4.8125 0.0625 C4.8125 1.7125 4.8125 3.3625 4.8125 5.0625 C3.8225 4.7325 2.8325 4.4025 1.8125 4.0625 C1.8125 3.4025 1.8125 2.7425 1.8125 2.0625 C-4.1275 2.5575 -4.1275 2.5575 -10.1875 3.0625 C-7.02470604 -0.10029396 -4.26614261 -0.05540445 0 0 Z " fill="#757D8F" transform="translate(449.1875,285.9375)"/>
<path d="M0 0 C2.05078125 0.03255208 4.1015625 0.06510417 6.15234375 0.09765625 C6.15234375 1.74765625 6.15234375 3.39765625 6.15234375 5.09765625 C4.50234375 5.42765625 2.85234375 5.75765625 1.15234375 6.09765625 C-0.16765625 4.44765625 -1.48765625 2.79765625 -2.84765625 1.09765625 C-1.84765625 0.09765625 -1.84765625 0.09765625 0 0 Z " fill="#DEE3F5" transform="translate(456.84765625,207.90234375)"/>
<path d="M0 0 C2.0625 1.5625 2.0625 1.5625 4 4 C3.75 7.75 3.75 7.75 3 11 C0.9375 9.4375 0.9375 9.4375 -1 7 C-0.75 3.25 -0.75 3.25 0 0 Z " fill="#E4E8F4" transform="translate(451,198)"/>
<path d="M0 0 C1.258125 0.226875 2.51625 0.45375 3.8125 0.6875 C2.76375002 3.30937494 2.16318687 4.48121361 -0.3125 5.9375 C-0.93125 6.185 -1.55 6.4325 -2.1875 6.6875 C-3.8375 5.3675 -5.4875 4.0475 -7.1875 2.6875 C-5.15110924 -0.49436057 -3.4972064 -0.45804119 0 0 Z M-1.1875 1.6875 C-1.1875 2.3475 -1.1875 3.0075 -1.1875 3.6875 C-0.5275 3.6875 0.1325 3.6875 0.8125 3.6875 C0.8125 3.0275 0.8125 2.3675 0.8125 1.6875 C0.1525 1.6875 -0.5075 1.6875 -1.1875 1.6875 Z " fill="#DEE3F0" transform="translate(436.1875,160.3125)"/>
<path d="M0 0 C0 0.66 0 1.32 0 2 C-1.90790032 2.89395329 -3.82673806 3.76459334 -5.75 4.625 C-6.81734375 5.11226563 -7.8846875 5.59953125 -8.984375 6.1015625 C-12 7 -12 7 -14.390625 6.1484375 C-14.92171875 5.76945312 -15.4528125 5.39046875 -16 5 C-16 4.67 -16 4.34 -16 4 C-15.15695312 3.79503906 -14.31390625 3.59007812 -13.4453125 3.37890625 C-12.34960938 3.10949219 -11.25390625 2.84007812 -10.125 2.5625 C-9.03445313 2.29566406 -7.94390625 2.02882813 -6.8203125 1.75390625 C-0.25906736 0 -0.25906736 0 0 0 Z " fill="#D2F3F8" transform="translate(415,338)"/>
<path d="M0 0 C1.32 0.66 2.64 1.32 4 2 C4 2.66 4 3.32 4 4 C-1.47619048 9 -1.47619048 9 -4 9 C-2.80100302 5.9168649 -1.52299523 2.93720508 0 0 Z " fill="#A9B0C1" transform="translate(234,324)"/>
<path d="M0 0 C0.33 0.99 0.66 1.98 1 3 C2.98 3 4.96 3 7 3 C7 3.33 7 3.66 7 4 C4.36 4 1.72 4 -1 4 C-1 5.32 -1 6.64 -1 8 C-1.99 7.67 -2.98 7.34 -4 7 C-4.6875 4.9375 -4.6875 4.9375 -5 3 C-3.35 2.01 -1.7 1.02 0 0 Z " fill="#9CA4B9" transform="translate(421,314)"/>
<path d="M0 0 C1.65 0 3.3 0 5 0 C5.66 1.32 6.32 2.64 7 4 C5.3125 6.0625 5.3125 6.0625 3 8 C0.25 7.75 0.25 7.75 -2 7 C-0.35 5.35 1.3 3.7 3 2 C2.01 1.34 1.02 0.68 0 0 Z " fill="#D9E0EE" transform="translate(461,303)"/>
<path d="M0 0 C0.66 0.33 1.32 0.66 2 1 C-1.11016455 4.28788824 -4.01618925 6.83735988 -8 9 C-8.99 8.34 -9.98 7.68 -11 7 C-9.68 7 -8.36 7 -7 7 C-6.773125 6.360625 -6.54625 5.72125 -6.3125 5.0625 C-5 3 -5 3 -2.375 2.25 C-1.59125 2.1675 -0.8075 2.085 0 2 C0 1.34 0 0.68 0 0 Z " fill="#57B2A5" transform="translate(480,339)"/>
<path d="M0 0 C0.8125 1.6875 0.8125 1.6875 1 4 C-1.1875 6.5 -1.1875 6.5 -4 9 C-4.680625 9.78375 -5.36125 10.5675 -6.0625 11.375 C-6.701875 11.91125 -7.34125 12.4475 -8 13 C-10.12109375 12.6015625 -10.12109375 12.6015625 -12 12 C-11.46890625 11.63648438 -10.9378125 11.27296875 -10.390625 10.8984375 C-5.84855246 7.66594062 -2.76940714 4.8464625 0 0 Z " fill="#CFF4F3" transform="translate(484,336)"/>
<path d="M0 0 C5.28 0 10.56 0 16 0 C16 0.66 16 1.32 16 2 C10.31150252 3.49697302 5.58190932 2.3348044 0 1 C0 0.67 0 0.34 0 0 Z " fill="#4FAEA2" transform="translate(422,340)"/>
<path d="M0 0 C2.97 0.495 2.97 0.495 6 1 C6.33 1.99 6.66 2.98 7 4 C6.360625 4.28875 5.72125 4.5775 5.0625 4.875 C2.84793921 5.82823451 2.84793921 5.82823451 2 8 C0.74335022 5.09399739 0 3.20395416 0 0 Z " fill="#6F7A94" transform="translate(377,201)"/>
<path d="M0 0 C0.99 0.66 1.98 1.32 3 2 C2.67 2.66 2.34 3.32 2 4 C2.66 4 3.32 4 4 4 C4 4.66 4 5.32 4 6 C1.36 6.99 -1.28 7.98 -4 9 C-3.34 7.35 -2.68 5.7 -2 4 C-1.34 4 -0.68 4 0 4 C-0.33 3.01 -0.66 2.02 -1 1 C-0.67 0.67 -0.34 0.34 0 0 Z " fill="#E4E7F5" transform="translate(384,152)"/>
<path d="M0 0 C2.475 0.495 2.475 0.495 5 1 C4.01 1.33 3.02 1.66 2 2 C2.99 2.33 3.98 2.66 5 3 C5.33 4.65 5.66 6.3 6 8 C3.03 7.505 3.03 7.505 0 7 C0 4.69 0 2.38 0 0 Z " fill="#59627C" transform="translate(265,368)"/>
<path d="M0 0 C0.33 0 0.66 0 1 0 C1.28571429 8.57142857 1.28571429 8.57142857 -1 12 C-1.99 10.35 -2.98 8.7 -4 7 C-2.68 4.69 -1.36 2.38 0 0 Z " fill="#7A829B" transform="translate(343,360)"/>
<path d="M0 0 C0.99 0.33 1.98 0.66 3 1 C3 3.31 3 5.62 3 8 C2.01 8.33 1.02 8.66 0 9 C-1.06775224 7.03533587 -2.06553465 5.03144641 -3 3 C-2.67 2.34 -2.34 1.68 -2 1 C-1.34 1.33 -0.68 1.66 0 2 C0 1.34 0 0.68 0 0 Z " fill="#707A9B" transform="translate(349,220)"/>
<path d="M0 0 C0.66 0.33 1.32 0.66 2 1 C2.33 1.99 2.66 2.98 3 4 C3.66 4.33 4.32 4.66 5 5 C5.33 5.66 5.66 6.32 6 7 C3.125 6.75 3.125 6.75 0 6 C-1.375 3.9375 -1.375 3.9375 -2 2 C-1.34 1.34 -0.68 0.68 0 0 Z " fill="#72B7B0" transform="translate(410,446)"/>
<path d="M0 0 C2.92879371 0.62759865 5.36095629 1.58622659 8 3 C2.75614911 4.7479503 -1.47322267 5.19392201 -7 5 C-7 4.67 -7 4.34 -7 4 C-4.69 4 -2.38 4 0 4 C0 2.68 0 1.36 0 0 Z " fill="#888FA9" transform="translate(388,370)"/>
<path d="M0 0 C1.98 0.99 1.98 0.99 4 2 C3.835 2.94875 3.67 3.8975 3.5 4.875 C2.9473365 7.80168901 2.9473365 7.80168901 3 10 C2.01 10 1.02 10 0 10 C0 6.7 0 3.4 0 0 Z " fill="#D9F3FA" transform="translate(364,358)"/>
<path d="M0 0 C0.33 0 0.66 0 1 0 C1.33 5.28 1.66 10.56 2 16 C1.01 16 0.02 16 -1 16 C-1.33 15.01 -1.66 14.02 -2 13 C-1.67 12.34 -1.34 11.68 -1 11 C-0.7724985 9.12943209 -0.59037189 7.25314042 -0.4375 5.375 C-0.35371094 4.37210937 -0.26992188 3.36921875 -0.18359375 2.3359375 C-0.12300781 1.56507813 -0.06242187 0.79421875 0 0 Z " fill="#E7ECF7" transform="translate(486,327)"/>
<path d="M0 0 C-2.70269923 2.70269923 -5.4252738 3.70570258 -9 5 C-11.2265625 4.58203125 -11.2265625 4.58203125 -13 4 C-11.59248779 3.13083113 -10.1735479 2.28014851 -8.75 1.4375 C-7.96109375 0.96183594 -7.1721875 0.48617188 -6.359375 -0.00390625 C-3.69155375 -1.13022151 -2.65498232 -1.0169313 0 0 Z " fill="#DAF6F4" transform="translate(446,322)"/>
<path d="M0 0 C0.6875 1.75 0.6875 1.75 1 4 C-0.4600074 6.43334567 -1.45235564 7.72617782 -4 9 C-4 9.66 -4 10.32 -4 11 C-5.32 11 -6.64 11 -8 11 C-8 10.34 -8 9.68 -8 9 C-6.49802644 7.75923923 -4.99387685 6.52078183 -3.46875 5.30859375 C-1.71339865 3.74465039 -0.81385136 2.19739866 0 0 Z " fill="#E9EDF6" transform="translate(453,291)"/>
<path d="M0 0 C5.625 -0.25 5.625 -0.25 9 2 C8.34 3.32 7.68 4.64 7 6 C7 5.34 7 4.68 7 4 C4.69 3.67 2.38 3.34 0 3 C0 2.01 0 1.02 0 0 Z " fill="#77819A" transform="translate(418,153)"/>
<path d="M0 0 C-1.5747294 0.72726052 -3.16024279 1.43120422 -4.75 2.125 C-5.63171875 2.51945312 -6.5134375 2.91390625 -7.421875 3.3203125 C-10 4 -10 4 -12.328125 3.1171875 C-12.87984375 2.74851562 -13.4315625 2.37984375 -14 2 C-12.42085985 1.46658816 -10.83645613 0.94874237 -9.25 0.4375 C-8.36828125 0.14746094 -7.4865625 -0.14257812 -6.578125 -0.44140625 C-3.92165684 -1.01697435 -2.52968894 -0.89248371 0 0 Z " fill="#58ABA3" transform="translate(464,352)"/>
<path d="M0 0 C-0.33 0.99 -0.66 1.98 -1 3 C-1.66 3.268125 -2.32 3.53625 -3 3.8125 C-3.66 4.204375 -4.32 4.59625 -5 5 C-5.81584568 8.05908413 -5.81584568 8.05908413 -6 11 C-6.99 11 -7.98 11 -9 11 C-8.8615024 8.02230154 -8.68881566 5.78173508 -6.66796875 3.48828125 C-2.55999284 0 -2.55999284 0 0 0 Z " fill="#E1F9F9" transform="translate(432,327)"/>
<path d="M0 0 C-1.65 1.65 -3.3 3.3 -5 5 C-5.99 4.34 -6.98 3.68 -8 3 C-7.67 2.01 -7.34 1.02 -7 0 C-4.3333581 -1.33332095 -2.83319697 -0.67102033 0 0 Z " fill="#E1E8F6" transform="translate(224,249)"/>
<path d="M0 0 C0.66 0.33 1.32 0.66 2 1 C1.01 1.33 0.02 1.66 -1 2 C-0.67 2.99 -0.34 3.98 0 5 C-4.43076923 7.09230769 -4.43076923 7.09230769 -7.3125 6.625 C-7.869375 6.41875 -8.42625 6.2125 -9 6 C-4.25 3 -4.25 3 -2 3 C-2 2.34 -2 1.68 -2 1 C-1.34 0.67 -0.68 0.34 0 0 Z " fill="#AEB5C6" transform="translate(228,306)"/>
<path d="M0 0 C0.33 1.32 0.66 2.64 1 4 C-0.32 4 -1.64 4 -3 4 C-3.33 4.66 -3.66 5.32 -4 6 C-4.99 6 -5.98 6 -7 6 C-6.75 4.125 -6.75 4.125 -6 2 C-3.85331506 0.61504198 -2.56128588 0 0 0 Z " fill="#D8E1F1" transform="translate(378,269)"/>
<path d="M0 0 C0 3.29223784 -0.50518132 5.08510357 -2 8 C-4.125 9.3125 -4.125 9.3125 -6 10 C-5.58578031 5.16743695 -3.53586014 3.17320782 0 0 Z " fill="#6C7384" transform="translate(166,431)"/>
<path d="M0 0 C0 2.33333333 0 4.66666667 0 7 C-2.31 7.33 -4.62 7.66 -7 8 C-6.02133662 6.85373678 -5.04205413 5.70800212 -4.0625 4.5625 C-3.51722656 3.92441406 -2.97195312 3.28632813 -2.41015625 2.62890625 C-1.63204305 1.73008851 -0.84063472 0.84063472 0 0 Z " fill="#646C7F" transform="translate(174,423)"/>
<path d="M0 0 C-0.78375 0.61875 -1.5675 1.2375 -2.375 1.875 C-4.96837647 3.89858661 -4.96837647 3.89858661 -7 6 C-7.99 6 -8.98 6 -10 6 C-8.09258661 0.27775983 -5.91019817 -0.39401321 0 0 Z " fill="#77809B" transform="translate(394,341)"/>
<path d="M0 0 C2.6875 0.3125 2.6875 0.3125 5 1 C4.01 1.495 4.01 1.495 3 2 C3 3.65 3 5.3 3 7 C1.02 5.68 -0.96 4.36 -3 3 C-1.8125 1.4375 -1.8125 1.4375 0 0 Z " fill="#BFC8DB" transform="translate(248,264)"/>
<path d="M0 0 C0.66 0 1.32 0 2 0 C3.26237731 2.52475462 3.09856404 4.31200466 3.0625 7.125 C3.05347656 8.03507813 3.04445313 8.94515625 3.03515625 9.8828125 C3.02355469 10.58148438 3.01195312 11.28015625 3 12 C2.67 12 2.34 12 2 12 C0.40861915 7.82262526 -0.21278058 4.46839215 0 0 Z " fill="#72778E" transform="translate(378,242)"/>
<path d="M0 0 C3.31562557 0.55260426 6.15062207 1.16825705 9 3 C9.33 3.99 9.66 4.98 10 6 C5.56909529 4.79157144 3.01887244 3.48331435 0 0 Z " fill="#778198" transform="translate(330,195)"/>
<path d="M0 0 C0.33 0 0.66 0 1 0 C1.12375 0.94875 1.2475 1.8975 1.375 2.875 C1.71687177 6.08667191 1.71687177 6.08667191 4 8 C1.625 8.625 1.625 8.625 -1 9 C-1.66 8.34 -2.32 7.68 -3 7 C-2.67 6.34 -2.34 5.68 -2 5 C-1.34 5 -0.68 5 0 5 C0 3.35 0 1.7 0 0 Z " fill="#7B82A0" transform="translate(427,157)"/>
<path d="M0 0 C0.66 0.33 1.32 0.66 2 1 C0.91796875 2.48828125 0.91796875 2.48828125 -1 4 C-4.13671875 4.29296875 -4.13671875 4.29296875 -7.6875 4.1875 C-9.45673828 4.14689453 -9.45673828 4.14689453 -11.26171875 4.10546875 C-12.61716797 4.05326172 -12.61716797 4.05326172 -14 4 C-14 3.67 -14 3.34 -14 3 C-12.60974609 2.80083984 -12.60974609 2.80083984 -11.19140625 2.59765625 C-9.99386719 2.42105469 -8.79632813 2.24445313 -7.5625 2.0625 C-6.36753906 1.88847656 -5.17257812 1.71445313 -3.94140625 1.53515625 C-1.12044324 1.31014787 -1.12044324 1.31014787 0 0 Z " fill="#CFD5E3" transform="translate(409,152)"/>
<path d="M0 0 C1.134375 0.020625 2.26875 0.04125 3.4375 0.0625 C1.11893083 1.60821278 -1.06888429 2.85868552 -3.5625 4.0625 C-3.5625 5.0525 -3.5625 6.0425 -3.5625 7.0625 C-4.5525 6.7325 -5.5425 6.4025 -6.5625 6.0625 C-4.25951087 0.07472826 -4.25951087 0.07472826 0 0 Z " fill="#E2FCFC" transform="translate(412.5625,443.9375)"/>
<path d="M0 0 C0.99 0.33 1.98 0.66 3 1 C2.67 1.66 2.34 2.32 2 3 C2.66 3 3.32 3 4 3 C4 3.99 4 4.98 4 6 C2.68 6 1.36 6 0 6 C-0.33 6.66 -0.66 7.32 -1 8 C-0.67 5.36 -0.34 2.72 0 0 Z " fill="#DEE4EF" transform="translate(289,384)"/>
<path d="M0 0 C3.96 1.98 3.96 1.98 8 4 C7.67 4.66 7.34 5.32 7 6 C1.25 4.375 1.25 4.375 -1 1 C-0.67 0.67 -0.34 0.34 0 0 Z " fill="#6A7591" transform="translate(297,328)"/>
<path d="M0 0 C0.33 0.66 0.66 1.32 1 2 C-6.625 3.25 -6.625 3.25 -10 1 C-3.44680851 -1.53191489 -3.44680851 -1.53191489 0 0 Z " fill="#89C0BC" transform="translate(458,316)"/>
<path d="M0 0 C-0.66 1.65 -1.32 3.3 -2 5 C-2.99 5 -3.98 5 -5 5 C-5.66 5.66 -6.32 6.32 -7 7 C-6.6875 4.625 -6.6875 4.625 -6 2 C-3 0 -3 0 0 0 Z " fill="#727B97" transform="translate(433,285)"/>
<path d="M0 0 C0.99 0.66 1.98 1.32 3 2 C0.6875 4.0625 0.6875 4.0625 -2 6 C-2.99 5.67 -3.98 5.34 -5 5 C-5 4.01 -5 3.02 -5 2 C-2.6875 0.875 -2.6875 0.875 0 0 Z " fill="#E0E6F4" transform="translate(349,212)"/>
<path d="M0 0 C0.66 0 1.32 0 2 0 C2.125 3.375 2.125 3.375 2 7 C1.34 7.66 0.68 8.32 0 9 C-0.87890625 2.84765625 -0.87890625 2.84765625 -1 1 C-0.67 0.67 -0.34 0.34 0 0 Z " fill="#5D6178" transform="translate(314,431)"/>
<path d="M0 0 C0.66 0.33 1.32 0.66 2 1 C1.67 2.32 1.34 3.64 1 5 C-1.875 5.125 -1.875 5.125 -5 5 C-5.66 4.34 -6.32 3.68 -7 3 C-4.69631264 1.93347808 -2.35981813 0.93578995 0 0 Z " fill="#E8EDF5" transform="translate(228,424)"/>
<path d="M0 0 C3.3 0 6.6 0 10 0 C9.01 1.485 9.01 1.485 8 3 C5.375 3.1875 5.375 3.1875 3 3 C3 2.34 3 1.68 3 1 C2.01 0.67 1.02 0.34 0 0 Z " fill="#626E89" transform="translate(445,303)"/>
<path d="M0 0 C0.33 0 0.66 0 1 0 C1.33 2.64 1.66 5.28 2 8 C1.34 8 0.68 8 0 8 C0 9.65 0 11.3 0 13 C-0.33 13 -0.66 13 -1 13 C-1.0272415 11.58344207 -1.04650467 10.16672955 -1.0625 8.75 C-1.07410156 7.96109375 -1.08570313 7.1721875 -1.09765625 6.359375 C-1.00385306 4.09308998 -0.63241063 2.1711105 0 0 Z " fill="#BCC1CF" transform="translate(168,344)"/>
<path d="M0 0 C-0.33 1.32 -0.66 2.64 -1 4 C-1.99 4 -2.98 4 -4 4 C-5.67099977 4.31088368 -7.33871537 4.64080332 -9 5 C-9 4.34 -9 3.68 -9 3 C-3.375 0 -3.375 0 0 0 Z " fill="#D8E2EF" transform="translate(306,310)"/>
<path d="M0 0 C3 1 3 1 5 4 C3.02 4.66 1.04 5.32 -1 6 C-0.67 4.02 -0.34 2.04 0 0 Z " fill="#EAF1F7" transform="translate(439,283)"/>
<path d="M0 0 C2.38564077 0.57584432 4.66682784 1.22227595 7 2 C6.34 3.32 5.68 4.64 5 6 C4.01 5.34 3.02 4.68 2 4 C2 3.34 2 2.68 2 2 C1.34 2 0.68 2 0 2 C0 1.34 0 0.68 0 0 Z " fill="#AFB7C6" transform="translate(268,262)"/>
<path d="M0 0 C0.33 0.99 0.66 1.98 1 3 C-0.093125 2.814375 -1.18625 2.62875 -2.3125 2.4375 C-5.93624133 1.7421932 -5.93624133 1.7421932 -9 3 C-9.33 2.34 -9.66 1.68 -10 1 C-6.78548731 -0.60725635 -3.56387464 -0.05748185 0 0 Z " fill="#7A84A0" transform="translate(398,156)"/>
<path d="M0 0 C3.125 0.375 3.125 0.375 6 1 C6 1.99 6 2.98 6 4 C3.36 3.34 0.72 2.68 -2 2 C-1.34 1.34 -0.68 0.68 0 0 Z " fill="#D2F6F4" transform="translate(586,443)"/>
<path d="M0 0 C2.97 0 5.94 0 9 0 C9 0.66 9 1.32 9 2 C7.02 2.66 5.04 3.32 3 4 C1.97895449 3.02149805 0.9793879 2.02019573 0 1 C0 0.67 0 0.34 0 0 Z " fill="#8CB2BC" transform="translate(365,356)"/>
<path d="M0 0 C1.65 0.33 3.3 0.66 5 1 C3.515 3.475 3.515 3.475 2 6 C0.68 5.34 -0.64 4.68 -2 4 C-1.34 3.34 -0.68 2.68 0 2 C0 1.34 0 0.68 0 0 Z " fill="#ECEFFB" transform="translate(321,334)"/>
<path d="M0 0 C-0.61277612 2.96175123 -1.25372522 4.38058783 -3 7 C-3.66 5.02 -4.32 3.04 -5 1 C-3 0 -3 0 0 0 Z " fill="#E6EFF7" transform="translate(488,320)"/>
<path d="M0 0 C6.75 -0.125 6.75 -0.125 9 1 C8.67 1.99 8.34 2.98 8 4 C5.36 3.01 2.72 2.02 0 1 C0 0.67 0 0.34 0 0 Z " fill="#A8AEC6" transform="translate(213,273)"/>
<path d="M0 0 C0.66 0.33 1.32 0.66 2 1 C2 1.66 2 2.32 2 3 C2.99 3.33 3.98 3.66 5 4 C4.67 4.66 4.34 5.32 4 6 C1.9375 6.625 1.9375 6.625 0 7 C0.33 5.68 0.66 4.36 1 3 C0.01 2.67 -0.98 2.34 -2 2 C-1.34 1.34 -0.68 0.68 0 0 Z " fill="#6F7B98" transform="translate(370,228)"/>
<path d="M0 0 C2.97851562 0.53710938 2.97851562 0.53710938 5.95703125 1.07421875 C5.95703125 1.40421875 5.95703125 1.73421875 5.95703125 2.07421875 C2.32703125 2.40421875 -1.30296875 2.73421875 -5.04296875 3.07421875 C-2.04296875 0.07421875 -2.04296875 0.07421875 0 0 Z " fill="#E3FBFB" transform="translate(421.04296875,440.92578125)"/>
<path d="M0 0 C1.98 0.66 3.96 1.32 6 2 C6 2.99 6 3.98 6 5 C3.83125748 4.49396008 2.00032373 4.00016187 0 3 C0 2.01 0 1.02 0 0 Z " fill="#9AA4BB" transform="translate(222,274)"/>
<path d="M0 0 C0 0.33 0 0.66 0 1 C-3.3 0.67 -6.6 0.34 -10 0 C-10 -0.33 -10 -0.66 -10 -1 C-5.94568308 -2.15837626 -3.78187881 -1.83691257 0 0 Z " fill="#E6FDFD" transform="translate(586,443)"/>
<path d="M0 0 C0.99 0 1.98 0 3 0 C4.0625 1.875 4.0625 1.875 5 4 C4.67 4.66 4.34 5.32 4 6 C3.01 6 2.02 6 1 6 C0.67 4.02 0.34 2.04 0 0 Z " fill="#697494" transform="translate(330,400)"/>
<path d="M0 0 C0.33 0 0.66 0 1 0 C1.33 2.64 1.66 5.28 2 8 C0.68 8.33 -0.64 8.66 -2 9 C-1.34 6.03 -0.68 3.06 0 0 Z " fill="#D5D8ED" transform="translate(410,358)"/>
<path d="M0 0 C-0.33 0.99 -0.66 1.98 -1 3 C-2.98 3 -4.96 3 -7 3 C-7 2.34 -7 1.68 -7 1 C-4 0 -4 0 0 0 Z " fill="#D5F1F8" transform="translate(419,356)"/>
<path d="M0 0 C2.64 0 5.28 0 8 0 C5.4345406 2.5654594 3.52313332 2.54046087 0 3 C0 2.01 0 1.02 0 0 Z " fill="#E3FBFA" transform="translate(450,332)"/>
<path d="M0 0 C0.99 0.66 1.98 1.32 3 2 C0.36 3.98 -2.28 5.96 -5 8 C-3.47524303 4.95048605 -2.07114674 2.63600494 0 0 Z " fill="#AAB1C7" transform="translate(241,314)"/>
<path d="M0 0 C0.33 0.66 0.66 1.32 1 2 C0.67 2.99 0.34 3.98 0 5 C0.66 5.33 1.32 5.66 2 6 C0.35 6.66 -1.3 7.32 -3 8 C-2.37240135 5.07120629 -1.41377341 2.63904371 0 0 Z " fill="#7A859E" transform="translate(366,268)"/>
<path d="M0 0 C1.65 0.33 3.3 0.66 5 1 C3.35 2.65 1.7 4.3 0 6 C-1.125 2.25 -1.125 2.25 0 0 Z " fill="#E6EBF5" transform="translate(209,257)"/>
<path d="M0 0 C1.485 0.99 1.485 0.99 3 2 C2.34 2.66 1.68 3.32 1 4 C1 3.34 1 2.68 1 2 C0.34 1.67 -0.32 1.34 -1 1 C-0.67 0.67 -0.34 0.34 0 0 Z M-3 2 C-2.01 2.33 -1.02 2.66 0 3 C-0.33 3.66 -0.66 4.32 -1 5 C-2.32 4.67 -3.64 4.34 -5 4 C-4.34 3.34 -3.68 2.68 -3 2 Z " fill="#747C99" transform="translate(223,250)"/>
<path d="M0 0 C1.65 0 3.3 0 5 0 C5 1.65 5 3.3 5 5 C2.5 3.625 2.5 3.625 0 2 C0 1.34 0 0.68 0 0 Z " fill="#E9E9F7" transform="translate(458,208)"/>
<path d="M0 0 C1.32 1.32 2.64 2.64 4 4 C3.67 4.66 3.34 5.32 3 6 C0.9375 6.625 0.9375 6.625 -1 7 C-0.67 4.69 -0.34 2.38 0 0 Z " fill="#ECF0FC" transform="translate(451,198)"/>
<path d="M0 0 C1.32 0.33 2.64 0.66 4 1 C4 2.65 4 4.3 4 6 C3.01 6.33 2.02 6.66 1 7 C0.67 4.69 0.34 2.38 0 0 Z " fill="#E8EDFA" transform="translate(427,156)"/>
</svg>
